<svg version="1.1" xmlns="http://www.w3.org/2000/svg" xmlns:xlink="http://www.w3.org/1999/xlink" width="299.66286" height="74.56705" viewBox="0,0,299.66286,74.56705"><g transform="translate(-90.1686,-142.71234)"><g data-paper-data="{&quot;isPaintingLayer&quot;:true}" stroke-linejoin="miter" stroke-miterlimit="10" stroke-dasharray="" stroke-dashoffset="0" style="mix-blend-mode: normal"><path d="M90.1686,217.27939v-74.55875h299.66283v74.55875z" fill="#010102" fill-rule="nonzero" stroke="none" stroke-width="0" stroke-linecap="butt"/><g fill-rule="nonzero" stroke="none" stroke-width="0" stroke-linecap="butt"><path d="M90.16863,167.27938v-24.55875h299.66283v24.55875z" fill="#99c7ff"/><path d="M90.16863,191.7794v-24.55875h299.66283v24.55875z" fill="#57a3ff"/><path d="M90.16863,216.2794v-24.55875h299.66283v24.55875z" fill="#2387ff"/></g><g fill="#000000" fill-rule="nonzero" stroke="none" stroke-width="1" stroke-linecap="square"><path d="M159.47489,163.51891c-0.80208,0 -1.5625,-0.125 -2.28125,-0.375c-0.71875,-0.25 -1.34896,-0.59896 -1.89062,-1.04687c-0.53125,-0.44792 -0.92187,-0.96354 -1.17187,-1.54687c-0.125,-0.26042 -0.125,-0.5 0,-0.71875c0.13542,-0.22917 0.35938,-0.375 0.67188,-0.4375c0.22917,-0.05209 0.44792,-0.01562 0.65625,0.10938c0.21875,0.11458 0.38542,0.29166 0.5,0.53125c0.14584,0.3125 0.39063,0.59896 0.73438,0.85938c0.34375,0.26041 0.75521,0.47396 1.23438,0.64063c0.48959,0.15625 1.00521,0.23438 1.54688,0.23438c0.59375,0 1.14063,-0.09375 1.64063,-0.28125c0.51042,-0.1875 0.91667,-0.45834 1.21875,-0.8125c0.3125,-0.35417 0.46875,-0.79167 0.46875,-1.3125c0,-0.66667 -0.26041,-1.26042 -0.78125,-1.78125c-0.51041,-0.52084 -1.35416,-0.84375 -2.53125,-0.96875c-1.54166,-0.14584 -2.75521,-0.59896 -3.64062,-1.35937c-0.88541,-0.76042 -1.32812,-1.69792 -1.32812,-2.8125c0,-0.82292 0.22917,-1.52084 0.6875,-2.09375c0.45834,-0.57292 1.08334,-1.00521 1.875,-1.29687c0.79167,-0.30209 1.67188,-0.45312 2.64063,-0.45312c0.76042,0 1.42188,0.10416 1.98438,0.3125c0.57292,0.20833 1.06771,0.5 1.48438,0.875c0.42709,0.375 0.79688,0.81771 1.10938,1.32813c0.16667,0.27083 0.23438,0.53125 0.20313,0.78125c-0.02083,0.23958 -0.14062,0.42708 -0.35937,0.5625c-0.22916,0.14583 -0.48437,0.17708 -0.76562,0.09375c-0.27083,-0.08334 -0.47396,-0.24479 -0.60937,-0.48437c-0.19791,-0.36459 -0.44271,-0.67187 -0.73437,-0.92187c-0.28125,-0.25 -0.61458,-0.44271 -1,-0.57812c-0.38541,-0.14584 -0.83854,-0.21875 -1.35937,-0.21875c-0.92708,-0.01042 -1.70312,0.16146 -2.32812,0.51563c-0.61458,0.35416 -0.92187,0.89583 -0.92187,1.625c0,0.375 0.09375,0.73438 0.28125,1.07813c0.19792,0.34375 0.55209,0.64063 1.0625,0.89063c0.52084,0.25 1.26563,0.42188 2.23438,0.51563c1.47917,0.14583 2.63021,0.59896 3.45313,1.35938c0.83334,0.75 1.25,1.73958 1.25,2.96875c0,0.70833 -0.14583,1.32291 -0.4375,1.84375c-0.29166,0.52083 -0.68229,0.96354 -1.17187,1.32813c-0.48958,0.35416 -1.05208,0.61979 -1.6875,0.79688c-0.625,0.16666 -1.27083,0.25 -1.9375,0.25zM172.1229,163.40954c-1,0 -1.89062,-0.22396 -2.67187,-0.67187c-0.77083,-0.45834 -1.38021,-1.07812 -1.82812,-1.85937c-0.4375,-0.78125 -0.65625,-1.66146 -0.65625,-2.64062c0,-1.01042 0.21875,-1.90625 0.65625,-2.6875c0.4375,-0.78125 1.03125,-1.39062 1.78125,-1.82812c0.76042,-0.44792 1.63542,-0.67187 2.625,-0.67187c0.72917,0 1.39584,0.14063 2,0.42188c0.61459,0.28125 1.16667,0.70313 1.65625,1.26563c0.16667,0.19791 0.22396,0.40104 0.17188,0.60938c-0.04166,0.20833 -0.17708,0.39583 -0.40625,0.5625c-0.16666,0.125 -0.35937,0.16666 -0.57812,0.125c-0.20833,-0.05209 -0.40104,-0.16146 -0.57812,-0.32812c-0.60416,-0.64584 -1.35937,-0.96875 -2.26562,-0.96875c-0.63541,0 -1.19791,0.14583 -1.6875,0.4375c-0.47916,0.29166 -0.85937,0.69791 -1.14062,1.21875c-0.27083,0.52083 -0.40625,1.13541 -0.40625,1.84375c0,0.67708 0.14063,1.27604 0.42188,1.79688c0.28125,0.52083 0.66667,0.93229 1.15625,1.23438c0.5,0.30208 1.08334,0.45313 1.75,0.45313c0.42709,0 0.80729,-0.05209 1.14063,-0.15625c0.33334,-0.10417 0.63542,-0.26562 0.90625,-0.48437c0.19792,-0.16667 0.40104,-0.26042 0.60938,-0.28125c0.21875,-0.02084 0.40625,0.04166 0.5625,0.1875c0.20834,0.16666 0.32292,0.35938 0.34375,0.57813c0.03125,0.21875 -0.04166,0.41666 -0.21875,0.59375c-0.88541,0.83333 -2,1.25 -3.34375,1.25zM179.61654,156.95641c0,-0.75 0.18229,-1.41667 0.54688,-2c0.36459,-0.59375 0.85938,-1.0625 1.48438,-1.40625c0.625,-0.35417 1.30729,-0.53125 2.04688,-0.53125c0.75,0 1.30729,0.11979 1.67188,0.35938c0.375,0.23958 0.51563,0.53125 0.42188,0.875c-0.03125,0.16666 -0.10416,0.29688 -0.21875,0.39063c-0.10416,0.09375 -0.22396,0.15625 -0.35937,0.1875c-0.13541,0.02083 -0.28125,0.01041 -0.4375,-0.03125c-0.80208,-0.15625 -1.52083,-0.16667 -2.15625,-0.03125c-0.63541,0.13541 -1.13541,0.39063 -1.5,0.76563c-0.36458,0.375 -0.54687,0.84896 -0.54687,1.42188zM179.63221,163.33141c-0.29166,0 -0.52083,-0.07812 -0.6875,-0.23437c-0.16666,-0.15625 -0.25,-0.39062 -0.25,-0.70312v-8.32812c0,-0.30209 0.08334,-0.53125 0.25,-0.6875c0.16667,-0.16667 0.39584,-0.25 0.6875,-0.25c0.3125,0 0.54688,0.07813 0.70313,0.23438c0.15625,0.15625 0.23438,0.39063 0.23438,0.70313v8.32813c0,0.30208 -0.07812,0.53646 -0.23437,0.70313c-0.15625,0.15625 -0.39062,0.23438 -0.70312,0.23438zM191.28058,163.40954c-0.90625,0 -1.72396,-0.22396 -2.45312,-0.67187c-0.71875,-0.45834 -1.28646,-1.07812 -1.70312,-1.85937c-0.41666,-0.78125 -0.625,-1.66146 -0.625,-2.64062c0,-0.97917 0.22396,-1.85937 0.67188,-2.64062c0.45834,-0.79167 1.07291,-1.41146 1.84375,-1.85937c0.78125,-0.45834 1.66146,-0.6875 2.64063,-0.6875c0.96875,0 1.83854,0.22916 2.60938,0.6875c0.77084,0.44791 1.38021,1.06771 1.82813,1.85938c0.45834,0.78125 0.6875,1.66146 0.6875,2.64063h-0.73437c0,0.97916 -0.20834,1.85938 -0.625,2.64063c-0.41666,0.78125 -0.98437,1.40104 -1.70312,1.85938c-0.71875,0.44791 -1.53125,0.67188 -2.4375,0.67188zM191.65558,161.72204c0.625,0 1.1875,-0.15104 1.6875,-0.45312c0.5,-0.30209 0.89063,-0.71875 1.17188,-1.25c0.29166,-0.53125 0.4375,-1.125 0.4375,-1.78125c0,-0.66667 -0.14584,-1.26562 -0.4375,-1.79687c-0.28125,-0.53125 -0.67187,-0.94792 -1.17187,-1.25c-0.5,-0.30209 -1.0625,-0.45312 -1.6875,-0.45312c-0.625,0 -1.19271,0.15104 -1.70312,0.45313c-0.5,0.30208 -0.89584,0.71875 -1.1875,1.25c-0.29166,0.53125 -0.4375,1.13021 -0.4375,1.79688c0,0.65625 0.14584,1.25 0.4375,1.78125c0.29166,0.53125 0.6875,0.94791 1.1875,1.25c0.51041,0.30208 1.07813,0.45313 1.70313,0.45313zM195.8275,163.34704c-0.27084,0 -0.5,-0.08854 -0.6875,-0.26562c-0.17709,-0.17709 -0.26562,-0.40625 -0.26562,-0.6875v-2.84375l0.35938,-1.98437l1.54688,0.67188v4.15625c0,0.28125 -0.09375,0.51041 -0.28125,0.6875c-0.17709,0.17708 -0.40104,0.26563 -0.67187,0.26563zM203.3267,163.33141c-0.625,0 -1.1875,-0.15625 -1.6875,-0.46875c-0.48958,-0.32292 -0.88021,-0.75521 -1.17187,-1.29687c-0.28125,-0.55209 -0.42187,-1.17187 -0.42187,-1.85937v-8.89062c0,-0.27084 0.08334,-0.49479 0.25,-0.67187c0.17709,-0.17709 0.40625,-0.26562 0.6875,-0.26562c0.27084,0 0.48959,0.08854 0.65625,0.26563c0.17709,0.17708 0.26563,0.40104 0.26563,0.67188v8.89063c0,0.5 0.13542,0.92188 0.40625,1.26563c0.28125,0.33333 0.61979,0.5 1.01563,0.5h0.64063c0.21875,0 0.40625,0.08854 0.5625,0.26563c0.15625,0.16666 0.23438,0.38541 0.23438,0.65625c0,0.28125 -0.10416,0.51041 -0.3125,0.6875c-0.19791,0.16666 -0.45833,0.25 -0.78125,0.25zM199.18604,155.09704c-0.26041,0 -0.47396,-0.07292 -0.64062,-0.21875c-0.15625,-0.14584 -0.23437,-0.33334 -0.23437,-0.5625c0,-0.25 0.07813,-0.44792 0.23438,-0.59375c0.16666,-0.14584 0.38021,-0.21875 0.64062,-0.21875h4.3125c0.26042,0 0.46875,0.07291 0.625,0.21875c0.16667,0.14583 0.25,0.34375 0.25,0.59375c0,0.22916 -0.08333,0.41666 -0.25,0.5625c-0.15625,0.14583 -0.36458,0.21875 -0.625,0.21875zM211.72972,163.40954c-1,0 -1.89062,-0.22396 -2.67187,-0.67187c-0.77083,-0.45834 -1.38021,-1.07812 -1.82812,-1.85937c-0.4375,-0.78125 -0.65625,-1.66146 -0.65625,-2.64062c0,-1.01042 0.21875,-1.90625 0.65625,-2.6875c0.4375,-0.78125 1.03125,-1.39062 1.78125,-1.82812c0.76042,-0.44792 1.63542,-0.67187 2.625,-0.67187c0.72917,0 1.39584,0.14063 2,0.42188c0.61459,0.28125 1.16667,0.70313 1.65625,1.26563c0.16667,0.19791 0.22396,0.40104 0.17188,0.60938c-0.04166,0.20833 -0.17708,0.39583 -0.40625,0.5625c-0.16666,0.125 -0.35937,0.16666 -0.57812,0.125c-0.20833,-0.05209 -0.40104,-0.16146 -0.57812,-0.32812c-0.60416,-0.64584 -1.35937,-0.96875 -2.26562,-0.96875c-0.63541,0 -1.19791,0.14583 -1.6875,0.4375c-0.47916,0.29166 -0.85937,0.69791 -1.14062,1.21875c-0.27083,0.52083 -0.40625,1.13541 -0.40625,1.84375c0,0.67708 0.14063,1.27604 0.42188,1.79688c0.28125,0.52083 0.66667,0.93229 1.15625,1.23438c0.5,0.30208 1.08334,0.45313 1.75,0.45313c0.42709,0 0.80729,-0.05209 1.14063,-0.15625c0.33334,-0.10417 0.63542,-0.26562 0.90625,-0.48437c0.19792,-0.16667 0.40104,-0.26042 0.60938,-0.28125c0.21875,-0.02084 0.40625,0.04166 0.5625,0.1875c0.20834,0.16666 0.32292,0.35938 0.34375,0.57813c0.03125,0.21875 -0.04166,0.41666 -0.21875,0.59375c-0.88541,0.83333 -2,1.25 -3.34375,1.25zM219.25462,159.61266c-0.27083,0 -0.5,-0.08854 -0.6875,-0.26562c-0.17708,-0.17709 -0.26562,-0.40625 -0.26562,-0.6875v-8.95312c0,-0.28125 0.08854,-0.51042 0.26563,-0.6875c0.1875,-0.17709 0.41667,-0.26562 0.6875,-0.26562c0.29167,0 0.52084,0.08854 0.6875,0.26563c0.17709,0.17708 0.26563,0.40625 0.26563,0.6875v8.95313c0,0.28125 -0.08854,0.51041 -0.26562,0.6875c-0.16666,0.17708 -0.39583,0.26563 -0.6875,0.26563zM226.92654,163.34704c-0.27083,0 -0.5,-0.08854 -0.6875,-0.26562c-0.17708,-0.17709 -0.26562,-0.40625 -0.26562,-0.6875v-4.57812c0,-0.70834 -0.13021,-1.28646 -0.39062,-1.73437c-0.26041,-0.44792 -0.61458,-0.78125 -1.0625,-1c-0.4375,-0.21875 -0.94271,-0.32812 -1.51562,-0.32812c-0.52083,0 -0.99479,0.10416 -1.42187,0.3125c-0.41666,0.20833 -0.75,0.48958 -1,0.84375c-0.25,0.35416 -0.375,0.76563 -0.375,1.23438h-1.17187c0,-0.79167 0.1875,-1.49479 0.5625,-2.10937c0.38542,-0.61459 0.90625,-1.09896 1.5625,-1.45312c0.65625,-0.36459 1.39584,-0.54687 2.21875,-0.54687c0.86459,0 1.63542,0.18229 2.3125,0.54688c0.67709,0.36458 1.20834,0.90104 1.59375,1.60938c0.39584,0.70833 0.59375,1.58333 0.59375,2.625v4.57813c0,0.28125 -0.09375,0.51041 -0.28125,0.6875c-0.17708,0.17708 -0.40104,0.26563 -0.67187,0.26563zM219.25462,163.34704c-0.27083,0 -0.5,-0.08854 -0.6875,-0.26562c-0.17708,-0.17709 -0.26562,-0.40625 -0.26562,-0.6875v-8.3125c0,-0.29167 0.08854,-0.52084 0.26563,-0.6875c0.1875,-0.17709 0.41667,-0.26562 0.6875,-0.26562c0.29167,0 0.52084,0.08854 0.6875,0.26563c0.17709,0.16666 0.26563,0.39583 0.26563,0.6875v8.3125c0,0.28125 -0.08854,0.51041 -0.26562,0.6875c-0.16666,0.17708 -0.39583,0.26563 -0.6875,0.26563z"/><path d="M238.7197,163.35641c-0.27084,0 -0.5,-0.09375 -0.6875,-0.28125c-0.1875,-0.1875 -0.28125,-0.41667 -0.28125,-0.6875v-12.625c0,-0.29166 0.09375,-0.52604 0.28125,-0.70312c0.1875,-0.1875 0.41666,-0.28125 0.6875,-0.28125h8.4375c0.29166,0 0.52084,0.08854 0.6875,0.26563c0.17709,0.16666 0.26563,0.38541 0.26563,0.65625c0,0.26041 -0.08854,0.47396 -0.26562,0.64063c-0.16666,0.15625 -0.39584,0.23438 -0.6875,0.23438h-7.45312v4.53125h5.34375c0.29166,0 0.52084,0.08334 0.6875,0.25c0.17709,0.16666 0.26563,0.38541 0.26563,0.65625c0,0.26041 -0.08854,0.47396 -0.26562,0.64063c-0.16666,0.16666 -0.39584,0.25 -0.6875,0.25h-5.34375v4.65625h7.45313c0.29166,0 0.52084,0.08333 0.6875,0.25c0.17709,0.15625 0.26563,0.36458 0.26563,0.625c0,0.28125 -0.08854,0.50521 -0.26562,0.67188c-0.16666,0.16666 -0.39584,0.25 -0.6875,0.25zM257.2347,163.35641c-0.125,0 -0.24479,-0.01562 -0.35937,-0.04687c-0.10417,-0.04167 -0.20833,-0.125 -0.3125,-0.25l-3.26562,-3.92187l-0.67187,-0.67187l-3.25,-3.84375c-0.15625,-0.19791 -0.24479,-0.41146 -0.26562,-0.64062c-0.01042,-0.22916 0.05208,-0.42187 0.1875,-0.57812c0.14583,-0.16666 0.35417,-0.25 0.625,-0.25c0.30208,0 0.53646,0.10416 0.70313,0.3125l3.1875,3.8125l0.48438,0.4375l3.51563,4.20313c0.1875,0.22916 0.27604,0.45313 0.26563,0.67188c0,0.20833 -0.07812,0.39063 -0.23437,0.54688c-0.15625,0.14583 -0.35937,0.21875 -0.60937,0.21875zM250.10974,163.35641c-0.25,0 -0.44792,-0.07812 -0.59375,-0.23437c-0.13542,-0.15625 -0.20312,-0.34375 -0.20312,-0.5625c0,-0.22917 0.08333,-0.45312 0.25,-0.67187l3.17188,-3.98437l1.01563,1.42188l-2.96875,3.73438c-0.1875,0.19791 -0.41146,0.29688 -0.67187,0.29688zM254.71907,158.55953l-1.29687,-1.09375l3.01563,-4c0.09375,-0.125 0.19792,-0.20834 0.3125,-0.25c0.11458,-0.04166 0.23958,-0.0625 0.375,-0.0625c0.27083,0 0.47396,0.08334 0.60938,0.25c0.13542,0.16666 0.19792,0.36979 0.1875,0.60938c0,0.22916 -0.08854,0.45834 -0.26562,0.6875zM261.40747,167.71579c-0.27084,0 -0.5,-0.08854 -0.6875,-0.26562c-0.17709,-0.17708 -0.26562,-0.40104 -0.26562,-0.67187v-8.51562c0.02083,-0.97916 0.25521,-1.85937 0.70313,-2.64062c0.44791,-0.79166 1.05729,-1.41146 1.82813,-1.85937c0.77083,-0.45834 1.64063,-0.6875 2.60938,-0.6875c0.97916,0 1.85416,0.22916 2.625,0.6875c0.77083,0.44791 1.38021,1.06771 1.82813,1.85938c0.45833,0.78125 0.6875,1.66146 0.6875,2.64063c0,0.97916 -0.20834,1.85938 -0.625,2.64063c-0.41667,0.78125 -0.98437,1.40104 -1.70312,1.85938c-0.71875,0.44791 -1.53125,0.67188 -2.4375,0.67188c-0.73959,0 -1.41667,-0.15104 -2.03125,-0.45312c-0.61459,-0.3125 -1.14062,-0.72917 -1.57812,-1.25v5.04688c0,0.27084 -0.08854,0.49479 -0.26562,0.67188c-0.16667,0.17709 -0.39584,0.26563 -0.6875,0.26563zM265.59497,161.74703c0.63541,0 1.19791,-0.15104 1.6875,-0.45312c0.5,-0.30209 0.89583,-0.71875 1.1875,-1.25c0.29166,-0.53125 0.4375,-1.125 0.4375,-1.78125c0,-0.66666 -0.14584,-1.26562 -0.4375,-1.79687c-0.29167,-0.53125 -0.6875,-0.94791 -1.1875,-1.25c-0.48959,-0.30209 -1.05209,-0.45312 -1.6875,-0.45312c-0.625,0 -1.19271,0.15104 -1.70312,0.45313c-0.5,0.30209 -0.89584,0.71875 -1.1875,1.25c-0.28125,0.53125 -0.42187,1.13021 -0.42187,1.79688c0,0.65625 0.14063,1.25 0.42188,1.78125c0.29166,0.53125 0.6875,0.94791 1.1875,1.25c0.51041,0.30208 1.07813,0.45313 1.70313,0.45313zM276.00719,163.35641c-0.55209,0 -1.04167,-0.14584 -1.46875,-0.4375c-0.41667,-0.30209 -0.74479,-0.70834 -0.98437,-1.21875c-0.22917,-0.52084 -0.34375,-1.11979 -0.34375,-1.79687v-10.1875c0,-0.27084 0.08333,-0.49479 0.25,-0.67187c0.17708,-0.17709 0.40104,-0.26562 0.67188,-0.26562c0.28125,0 0.50521,0.08854 0.67188,0.26563c0.17708,0.17709 0.26563,0.40104 0.26563,0.67188v10.1875c0,0.45833 0.08333,0.83854 0.25,1.14063c0.17708,0.30208 0.40625,0.45313 0.6875,0.45313h0.46875c0.23958,0 0.4375,0.08854 0.59375,0.26563c0.15625,0.16666 0.23438,0.38541 0.23438,0.65625c0,0.28125 -0.11979,0.51041 -0.35937,0.6875c-0.22917,0.16666 -0.53125,0.25 -0.90625,0.25zM283.24719,163.43453c-1.01041,0 -1.90104,-0.21875 -2.67187,-0.65625c-0.77083,-0.44792 -1.38021,-1.05729 -1.82812,-1.82812c-0.4375,-0.78125 -0.65625,-1.67709 -0.65625,-2.6875c0,-1.02084 0.21875,-1.91666 0.65625,-2.6875c0.44792,-0.78125 1.05729,-1.39062 1.82813,-1.82812c0.77084,-0.44791 1.66146,-0.67187 2.67188,-0.67187c0.98959,0 1.86979,0.22396 2.64063,0.67188c0.77084,0.4375 1.375,1.04688 1.8125,1.82813c0.44792,0.77084 0.67188,1.66666 0.67188,2.6875c0,1.01041 -0.21875,1.90625 -0.65625,2.6875c-0.4375,0.77083 -1.04166,1.38021 -1.8125,1.82813c-0.77083,0.4375 -1.65625,0.65625 -2.65625,0.65625zM283.24719,161.74703c0.64584,0 1.21354,-0.14584 1.70313,-0.4375c0.5,-0.30209 0.89063,-0.71354 1.17188,-1.23437c0.28125,-0.52084 0.42188,-1.125 0.42188,-1.8125c0,-0.6875 -0.14062,-1.29166 -0.42187,-1.8125c-0.28125,-0.53125 -0.67187,-0.94271 -1.17187,-1.23437c-0.48958,-0.30209 -1.05729,-0.45312 -1.70312,-0.45312c-0.65625,0 -1.23437,0.15104 -1.73437,0.45313c-0.48958,0.29166 -0.88021,0.70313 -1.17187,1.23438c-0.28125,0.52084 -0.42187,1.125 -0.42187,1.8125c0,0.6875 0.14063,1.29166 0.42188,1.8125c0.29167,0.52083 0.68229,0.93229 1.17188,1.23438c0.5,0.29166 1.07813,0.4375 1.73438,0.4375zM292.12143,156.98141c0,-0.75 0.18229,-1.41666 0.54688,-2c0.36458,-0.59375 0.85938,-1.0625 1.48438,-1.40625c0.625,-0.35416 1.30729,-0.53125 2.04688,-0.53125c0.75,0 1.30729,0.11979 1.67188,0.35938c0.375,0.23959 0.51563,0.53125 0.42188,0.875c-0.03125,0.16666 -0.10417,0.29688 -0.21875,0.39063c-0.10417,0.09375 -0.22396,0.15625 -0.35937,0.1875c-0.13542,0.02084 -0.28125,0.01041 -0.4375,-0.03125c-0.80209,-0.15625 -1.52084,-0.16666 -2.15625,-0.03125c-0.63542,0.13541 -1.13542,0.39063 -1.5,0.76563c-0.36459,0.375 -0.54687,0.84896 -0.54687,1.42188zM292.13703,163.35641c-0.29167,0 -0.52084,-0.07812 -0.6875,-0.23437c-0.16667,-0.15625 -0.25,-0.39062 -0.25,-0.70312v-8.32812c0,-0.30209 0.08333,-0.53125 0.25,-0.6875c0.16666,-0.16666 0.39583,-0.25 0.6875,-0.25c0.3125,0 0.54688,0.07813 0.70313,0.23438c0.15625,0.15625 0.23438,0.39063 0.23438,0.70313v8.32813c0,0.30208 -0.07812,0.53646 -0.23437,0.70313c-0.15625,0.15625 -0.39062,0.23438 -0.70312,0.23438zM304.31672,163.43453c-1.03125,0 -1.94792,-0.21875 -2.75,-0.65625c-0.80208,-0.44792 -1.43229,-1.05729 -1.89062,-1.82812c-0.44792,-0.78125 -0.67187,-1.67709 -0.67187,-2.6875c0,-1.02084 0.21354,-1.91666 0.64063,-2.6875c0.42708,-0.78125 1.02083,-1.39062 1.78125,-1.82812c0.76042,-0.44791 1.63021,-0.67187 2.60938,-0.67187c0.97917,0 1.8125,0.21354 2.5,0.64063c0.69792,0.42709 1.22917,1.02084 1.59375,1.78125c0.375,0.75 0.5625,1.61459 0.5625,2.59375c0,0.23959 -0.08333,0.4375 -0.25,0.59375c-0.15625,0.15625 -0.35937,0.23438 -0.60937,0.23438h-7.51562v-1.5h7.45313l-0.76562,0.53125c-0.01042,-0.625 -0.13542,-1.18229 -0.375,-1.67187c-0.22917,-0.48959 -0.5625,-0.875 -1,-1.15625c-0.4375,-0.29166 -0.96875,-0.4375 -1.59375,-0.4375c-0.70833,0 -1.3125,0.15625 -1.8125,0.46875c-0.5,0.30209 -0.88542,0.72396 -1.15625,1.26563c-0.26042,0.54166 -0.39062,1.15625 -0.39062,1.84375c0,0.6875 0.15625,1.29688 0.46875,1.82813c0.3125,0.53125 0.73958,0.95313 1.28125,1.26563c0.55208,0.3125 1.18229,0.46875 1.89063,0.46875c0.38542,0 0.78125,-0.06771 1.1875,-0.20312c0.40625,-0.14584 0.73438,-0.3125 0.98438,-0.5c0.1875,-0.13542 0.39063,-0.20834 0.60938,-0.21875c0.21875,-0.01042 0.40625,0.05729 0.5625,0.20313c0.20833,0.17708 0.31771,0.38021 0.32813,0.60938c0.02083,0.21875 -0.07812,0.41146 -0.29687,0.57813c-0.41667,0.33333 -0.94271,0.60938 -1.57812,0.82813c-0.625,0.20833 -1.22396,0.3125 -1.79687,0.3125zM312.02723,156.98141c0,-0.75 0.18229,-1.41666 0.54688,-2c0.36459,-0.59375 0.85938,-1.0625 1.48438,-1.40625c0.625,-0.35416 1.30729,-0.53125 2.04688,-0.53125c0.75,0 1.30729,0.11979 1.67188,0.35938c0.375,0.23959 0.51563,0.53125 0.42188,0.875c-0.03125,0.16666 -0.10416,0.29688 -0.21875,0.39063c-0.10416,0.09375 -0.22396,0.15625 -0.35937,0.1875c-0.13541,0.02084 -0.28125,0.01041 -0.4375,-0.03125c-0.80208,-0.15625 -1.52083,-0.16666 -2.15625,-0.03125c-0.63541,0.13541 -1.13541,0.39063 -1.5,0.76563c-0.36458,0.375 -0.54687,0.84896 -0.54687,1.42188zM312.04285,163.35641c-0.29166,0 -0.52083,-0.07812 -0.6875,-0.23437c-0.16666,-0.15625 -0.25,-0.39062 -0.25,-0.70312v-8.32812c0,-0.30209 0.08334,-0.53125 0.25,-0.6875c0.16667,-0.16666 0.39584,-0.25 0.6875,-0.25c0.3125,0 0.54688,0.07813 0.70313,0.23438c0.15625,0.15625 0.23438,0.39063 0.23438,0.70313v8.32813c0,0.30208 -0.07812,0.53646 -0.23437,0.70313c-0.15625,0.15625 -0.39062,0.23438 -0.70312,0.23438z"/></g><g><path d="M97.52279,198.6786c0,-4.37819 0,-29.60759 0,-38.89663c0,-2.13842 0.58374,-3.43205 1.35822,-3.43205c4.07739,0 38.5387,0 46.03692,0c0.92204,0 1.43634,1.65623 1.43634,3.43205c0,5.15947 0,30.64255 0,38.76201c0,1.56927 -0.51681,2.4899 -1.43634,2.4899c-1.42722,0 -3.82466,0 -6.76583,0c-1.45327,0 -3.18641,4.97985 -4.85374,4.97985c-7.7642,0 -17.29136,0 -23.38616,0c-1.66379,0 -2.92469,-4.97985 -3.97123,-4.97985c-2.55227,0 -5.41663,0 -7.05997,0c-0.83778,0 -1.35822,-1.08481 -1.35822,-2.35533z" fill="#ffab19" fill-rule="nonzero" stroke="#cf8b17" stroke-width="1.5" stroke-linecap="butt"/><path d="M112.12557,190.91239c-1.23082,0 -2.40393,-0.1923 -3.51937,-0.57693c-1.11544,-0.38463 -2.0866,-0.92312 -2.91357,-1.61544c-0.49017,-0.40502 -0.92059,-0.8773 -1.2785,-1.40283c-0.21073,-0.31261 -0.39117,-0.64462 -0.53887,-0.99148c-0.04214,-0.08741 -0.07595,-0.17857 -0.10097,-0.27231c-0.07884,-0.30134 -0.04038,-0.58559 0.11539,-0.8527c0.14156,-0.24034 0.35698,-0.42854 0.61416,-0.53658c0.13159,-0.05719 0.26904,-0.09975 0.40991,-0.12692c0.10057,-0.02251 0.20331,-0.03396 0.30636,-0.03405c0.24153,0 0.48077,0.06426 0.7177,0.19271c0.33038,0.17962 0.59462,0.46022 0.75408,0.8008c0.00348,0.00711 0.00695,0.01421 0.01038,0.02134c0.13402,0.27453 0.30655,0.52856 0.51232,0.75436c0.17848,0.19887 0.3875,0.38974 0.62714,0.57261c0.52886,0.40385 1.16831,0.7308 1.91832,0.98081c0.75003,0.25001 1.53851,0.375 2.36548,0.375c0.55322,0.00246 1.10511,-0.05422 1.64632,-0.16904c0.30805,-0.06635 0.61104,-0.15446 0.90664,-0.26367c0.38826,-0.14106 0.75783,-0.32899 1.10053,-0.55964c0.29135,-0.19741 0.55647,-0.43102 0.78896,-0.69521c0.41082,-0.46989 0.65825,-1.06027 0.70531,-1.68266c0.01069,-0.11671 0.016,-0.23385 0.01586,-0.35106c-0.0001,-0.86018 -0.30173,-1.69314 -0.85242,-2.35395c-0.10811,-0.13476 -0.2232,-0.26377 -0.34473,-0.38657c-0.7908,-0.80023 -2.08653,-1.29841 -3.88716,-1.49455c-0.01684,-0.00186 -0.03364,-0.00368 -0.05048,-0.00547c-0.80242,-0.07289 -1.59677,-0.21723 -2.37355,-0.43126c-0.88657,-0.25001 -1.67475,-0.59099 -2.3646,-1.02292c-0.31164,-0.19462 -0.60816,-0.41247 -0.88704,-0.65166c-0.58672,-0.49193 -1.07404,-1.09145 -1.43575,-1.76632c-0.41318,-0.80001 -0.62352,-1.68928 -0.61244,-2.58962c-0.00482,-0.5607 0.07404,-1.11897 0.23394,-1.65639c0.17413,-0.57347 0.45709,-1.10802 0.83342,-1.57448c0.52383,-0.64371 1.17117,-1.17609 1.90392,-1.56583c0.32102,-0.17365 0.65353,-0.32518 0.99523,-0.45349c0.8327,-0.31027 1.7009,-0.51533 2.58441,-0.61041c0.49723,-0.05537 0.99716,-0.08273 1.49744,-0.08192c0.48629,-0.0017 0.97217,0.0297 1.45421,0.09403c0.58639,0.0804 1.12571,0.2125 1.61804,0.39637c0.66002,0.24273 1.2823,0.5778 1.84825,0.99523c0.15333,0.11394 0.30182,0.23425 0.4451,0.36058c0.64448,0.57242 1.20166,1.23612 1.65381,1.96999c0.01619,0.02598 0.03224,0.05205 0.04816,0.0782c0.22848,0.35906 0.3427,0.7008 0.3427,1.02521c0,0.05747 -0.00365,0.11492 -0.01096,0.17194c-0.03682,0.33182 -0.21317,0.63225 -0.48494,0.82618c-0.02528,0.0187 -0.05116,0.0366 -0.0776,0.05365c-0.13676,0.08803 -0.28776,0.15167 -0.44625,0.18807c-0.19925,0.04422 -0.40597,0.04049 -0.62019,-0.01125c-0.03914,-0.00948 -0.07791,-0.02035 -0.11626,-0.0326c-0.21322,-0.0653 -0.4118,-0.17131 -0.58474,-0.31211c-0.14758,-0.12287 -0.27193,-0.27116 -0.36724,-0.43789c-0.21085,-0.38652 -0.4688,-0.74543 -0.76792,-1.06851c-0.11298,-0.12113 -0.23218,-0.23628 -0.35712,-0.34501c-0.38401,-0.33129 -0.81718,-0.60085 -1.28399,-0.79906c-0.09028,-0.03889 -0.18158,-0.07546 -0.27377,-0.10965c-0.59618,-0.22117 -1.29812,-0.33174 -2.10582,-0.33174c-0.04799,-0.0006 -0.09597,-0.00088 -0.14396,-0.00086c-1.35984,0 -2.5042,0.26472 -3.4331,0.79416c-0.35741,0.19667 -0.66981,0.46593 -0.91706,0.79042c-0.28943,0.38926 -0.45924,0.85136 -0.50943,1.38639c-0.01072,0.11547 -0.016,0.23136 -0.01586,0.34733c0.00141,0.58013 0.15434,1.14983 0.44367,1.65267c0.00114,0.00203 0.00229,0.00406 0.00346,0.00607c0.23213,0.41192 0.6159,0.78012 1.15131,1.10456c0.16002,0.09634 0.32453,0.18502 0.493,0.26567c0.79812,0.38463 1.94719,0.65386 3.44724,0.80772c0.76104,0.07208 1.51395,0.21365 2.2492,0.4229c0.84524,0.24636 1.59359,0.58223 2.24517,1.00762c0.30278,0.19708 0.58928,0.41808 0.85677,0.66088c1.12402,1.01659 1.80345,2.4342 1.8918,3.94717c0.01781,0.21754 0.02667,0.43572 0.02655,0.65398c0.00292,0.48522 -0.04683,0.9693 -0.14828,1.44382c-0.10601,0.4942 -0.28449,0.97003 -0.52963,1.41206c-0.45194,0.80772 -1.05773,1.48563 -1.81737,2.03374c-0.68211,0.48842 -1.43713,0.86596 -2.23709,1.1187c-0.11898,0.03821 -0.23872,0.07399 -0.35918,0.10733c-0.97118,0.26924 -1.97603,0.40385 -3.01452,0.40385z" fill="#000000" fill-rule="evenodd" stroke="#000000" stroke-width="0.25" stroke-linecap="round"/><path d="M139.35732,190.62391h-13.03893c-0.20601,0.00236 -0.41036,-0.03679 -0.60088,-0.11511c-0.17476,-0.07438 -0.3332,-0.1823 -0.46645,-0.31761c-0.28062,-0.27582 -0.43687,-0.65398 -0.43272,-1.04744c-0.00002,-0.00664 -0.00002,-0.01327 0,-0.01989v-19.52956c0,-0.44232 0.14424,-0.8029 0.43272,-1.08178c0.27926,-0.27227 0.65515,-0.42259 1.04512,-0.41801c0.0074,-0.00015 0.0148,-0.00022 0.0222,-0.00029h13.03893c0.15845,-0.00134 0.31641,0.01788 0.46992,0.05711c0.22458,0.05713 0.43044,0.17165 0.59741,0.33234c0.22115,0.21344 0.3596,0.49823 0.39088,0.80395c0.00881,0.07304 0.01316,0.14656 0.01297,0.2201c0.00158,0.15672 -0.02178,0.31274 -0.06924,0.46213c-0.06501,0.19882 -0.18029,0.37751 -0.33463,0.51868c-0.1898,0.17425 -0.42484,0.29153 -0.67819,0.33837c-0.1282,0.02507 -0.25853,0.03735 -0.38914,0.03663h-11.53889v7.00989h8.27915c0.15845,-0.00134 0.31642,0.01788 0.46992,0.05711c0.22456,0.05713 0.43045,0.17165 0.59742,0.33231c0.24688,0.2364 0.391,0.56039 0.40127,0.90204c0.0017,0.03104 0.00256,0.0621 0.00261,0.09316c0.0017,0.16606 -0.02443,0.33124 -0.07731,0.48866c-0.0668,0.19251 -0.17879,0.36624 -0.32656,0.50656c-0.19703,0.18839 -0.44604,0.31326 -0.71482,0.35858c-0.11631,0.02106 -0.2343,0.03138 -0.35252,0.03085h-8.27915v7.21179h11.53889c0.44232,0 0.79812,0.125 1.06735,0.37501c0.23786,0.21969 0.38084,0.52335 0.39867,0.84667c0.00351,0.04462 0.00523,0.08937 0.00518,0.13414c0,0.42309 -0.13461,0.76446 -0.40385,1.02407c-0.19703,0.18839 -0.44603,0.31326 -0.71481,0.35855c-0.11631,0.02106 -0.2343,0.0314 -0.35252,0.03088z" fill="#000000" fill-rule="evenodd" stroke="#000000" stroke-width="0.25" stroke-linecap="round"/></g><g fill-rule="nonzero"><g><path d="M99.12668,159.73059c0,-2.91021 2.3592,-5.26942 5.26942,-5.26942c2.91021,0 5.26941,2.3592 5.26941,5.26942c0,2.91021 -2.35919,5.26941 -5.26941,5.26941c-2.91021,0 -5.26942,-2.3592 -5.26942,-5.26941z" fill="#000000" stroke="none" stroke-width="NaN" stroke-linecap="butt"/><path d="M95.64352,164.27274c0,0 1.43533,-2.14008 2.23274,-2.39458c0.80168,-0.25585 3.43219,1.32283 3.43219,1.32283" fill="none" stroke="#000000" stroke-width="1.5" stroke-linecap="round"/><path d="M93.50001,161.26165c0,0 1.93499,-2.89773 3.16108,-3.02837c1.32314,-0.14097 3.57561,1.90559 3.57561,1.90559" fill="none" stroke="#000000" stroke-width="1.5" stroke-linecap="round"/><path d="M93.70415,156.71949c0,0 2.46001,-3.23812 3.76512,-2.52747c1.25409,0.68287 3.89021,2.68057 3.89021,2.68057" fill="none" stroke="#000000" stroke-width="1.5" stroke-linecap="round"/><path d="M107.57305,163.201c0,0 2.6305,-1.57869 3.43219,-1.32283c0.79741,0.25449 2.23275,2.39458 2.23275,2.39458" data-paper-data="{&quot;index&quot;:null}" fill="none" stroke="#000000" stroke-width="1.5" stroke-linecap="round"/><path d="M108.64479,160.13887c0,0 2.25247,-2.04656 3.5756,-1.90559c1.22609,0.13064 3.16108,3.02837 3.16108,3.02837" data-paper-data="{&quot;index&quot;:null}" fill="none" stroke="#000000" stroke-width="1.5" stroke-linecap="round"/><path d="M107.3689,156.92363c0,0 2.63613,-1.99771 3.89021,-2.68058c1.3051,-0.71065 3.76511,2.52747 3.76511,2.52747" data-paper-data="{&quot;index&quot;:null}" fill="none" stroke="#000000" stroke-width="1.5" stroke-linecap="round"/><g stroke="none" stroke-width="0" stroke-linecap="butt"><g><path d="M101.66569,162.28236c0,-0.56373 0.45699,-1.02071 1.02071,-1.02071c0.56373,0 1.02071,0.45699 1.02071,1.02071c0,0.56373 -0.45699,1.02071 -1.02071,1.02071c-0.56373,0 -1.02071,-0.45699 -1.02071,-1.02071z" fill="#ffffff"/><path d="M102.17604,162.89478c0,-0.28186 0.22849,-0.51036 0.51035,-0.51036c0.28186,0 0.51035,0.2285 0.51035,0.51036c0,0.28186 -0.22849,0.51036 -0.51035,0.51036c-0.28186,0 -0.51035,-0.2285 -0.51035,-0.51036z" fill="#000000"/></g><g><path d="M104.77886,162.28236c0,-0.56373 0.45699,-1.02071 1.02071,-1.02071c0.56373,0 1.02071,0.45699 1.02071,1.02071c0,0.56373 -0.45698,1.02071 -1.02071,1.02071c-0.56373,0 -1.02071,-0.45699 -1.02071,-1.02071z" fill="#ffffff"/><path d="M105.28921,162.89478c0,-0.28186 0.2285,-0.51036 0.51036,-0.51036c0.28186,0 0.51035,0.2285 0.51035,0.51036c0,0.28186 -0.22849,0.51036 -0.51035,0.51036c-0.28186,0 -0.51036,-0.2285 -0.51036,-0.51036z" fill="#000000"/></g></g></g><path d="M104.46307,143.46234v11.35255" fill="none" stroke="#000000" stroke-width="1.5" stroke-linecap="round"/></g><path d="M153.79715,180.98373c-0.20833,0 -0.35937,-0.08334 -0.45312,-0.25c-0.08333,-0.16666 -0.08854,-0.33334 -0.01562,-0.5l3.92188,-9.29687c0.09375,-0.23959 0.26042,-0.35937 0.5,-0.35937c0.22917,0 0.39584,0.11979 0.5,0.35938l3.92188,9.3125c0.08334,0.16666 0.07292,0.33334 -0.03125,0.5c-0.10416,0.15625 -0.25,0.23438 -0.4375,0.23438c-0.10416,0 -0.19791,-0.02604 -0.28125,-0.07812c-0.08333,-0.05209 -0.15104,-0.13021 -0.20312,-0.23437l-3.67187,-8.89062h0.42188l-3.70312,8.89063c-0.04166,0.10416 -0.10416,0.18229 -0.1875,0.23438c-0.08333,0.05209 -0.17708,0.07813 -0.28125,0.07813zM154.67215,178.49935l0.40625,-0.89062h5.40625l0.39063,0.89063zM169.85428,180.98373c-0.15625,0 -0.28125,-0.04687 -0.375,-0.14062c-0.09375,-0.10416 -0.14062,-0.22396 -0.14062,-0.35937v-3.46875c0,-0.55209 -0.10937,-1.00521 -0.32812,-1.35937c-0.20833,-0.35416 -0.49479,-0.61979 -0.85937,-0.79687c-0.35416,-0.17709 -0.75521,-0.26562 -1.20312,-0.26562c-0.4375,0 -0.83334,0.08334 -1.1875,0.25c-0.34375,0.16666 -0.61979,0.39584 -0.82812,0.6875c-0.20834,0.29166 -0.3125,0.625 -0.3125,1h-0.71875c0.01041,-0.5625 0.15625,-1.0625 0.4375,-1.5c0.29166,-0.4375 0.67188,-0.78125 1.14063,-1.03125c0.46875,-0.26041 0.99479,-0.39062 1.57813,-0.39062c0.625,0 1.1875,0.13541 1.6875,0.40625c0.5,0.26041 0.89063,0.64584 1.17188,1.15625c0.29167,0.5 0.4375,1.11459 0.4375,1.84375v3.46875c0,0.13541 -0.05208,0.25521 -0.15625,0.35938c-0.09375,0.09375 -0.20833,0.14063 -0.34375,0.14063zM164.11989,180.98373c-0.15625,0 -0.28125,-0.04687 -0.375,-0.14062c-0.09375,-0.09375 -0.14062,-0.21354 -0.14062,-0.35937v-6.26562c0,-0.16666 0.04688,-0.29687 0.14063,-0.39062c0.09375,-0.09375 0.21875,-0.14062 0.375,-0.14062c0.15625,0 0.27604,0.04688 0.35938,0.14063c0.09375,0.09375 0.14063,0.22396 0.14063,0.39063v6.26563c0,0.14584 -0.04687,0.26563 -0.14062,0.35938c-0.08334,0.09375 -0.20312,0.14063 -0.35937,0.14063zM176.09498,180.98373c-0.20834,0 -0.35937,-0.08334 -0.45312,-0.25c-0.08334,-0.16666 -0.08854,-0.33334 -0.01562,-0.5l3.92188,-9.29687c0.09375,-0.23959 0.26041,-0.35937 0.5,-0.35937c0.22916,0 0.39584,0.11979 0.5,0.35938l3.92188,9.3125c0.08334,0.16666 0.07291,0.33334 -0.03125,0.5c-0.10416,0.15625 -0.25,0.23438 -0.4375,0.23438c-0.10416,0 -0.19791,-0.02604 -0.28125,-0.07812c-0.08334,-0.05209 -0.15104,-0.13021 -0.20312,-0.23437l-3.67187,-8.89062h0.42188l-3.70312,8.89063c-0.04166,0.10416 -0.10416,0.18229 -0.1875,0.23438c-0.08334,0.05209 -0.17709,0.07813 -0.28125,0.07813zM176.96998,178.49935l0.40625,-0.89062h5.40625l0.39063,0.89063zM186.55841,180.98373c-0.15625,0 -0.28646,-0.04687 -0.39062,-0.14062c-0.09375,-0.10416 -0.14062,-0.22916 -0.14062,-0.375v-9.375c0,-0.14584 0.04688,-0.26562 0.14063,-0.35937c0.10416,-0.10416 0.23438,-0.15625 0.39063,-0.15625h2.65625c0.65625,0 1.23959,0.14584 1.75,0.4375c0.51041,0.28125 0.90625,0.67709 1.1875,1.1875c0.28125,0.5 0.42188,1.08334 0.42188,1.75c0,0.65625 -0.14062,1.23438 -0.42187,1.73438c-0.28125,0.5 -0.67709,0.89584 -1.1875,1.1875c-0.51041,0.29166 -1.09375,0.4375 -1.75,0.4375h-2.14062v3.15625c0,0.14584 -0.05209,0.27084 -0.15625,0.375c-0.09375,0.09375 -0.21354,0.14063 -0.35937,0.14063zM187.07401,176.31185h2.14063c0.45834,0 0.86459,-0.09896 1.21875,-0.29687c0.35416,-0.20834 0.63021,-0.48959 0.82813,-0.84375c0.19791,-0.35416 0.29688,-0.76041 0.29688,-1.21875c0,-0.46875 -0.09896,-0.88021 -0.29687,-1.23437c-0.19791,-0.35416 -0.47396,-0.63021 -0.82812,-0.82812c-0.35416,-0.20834 -0.76041,-0.3125 -1.21875,-0.3125h-2.14062zM194.71519,180.98373c-0.15625,0 -0.28646,-0.04687 -0.39062,-0.14062c-0.09375,-0.10416 -0.14062,-0.22916 -0.14062,-0.375v-9.375c0,-0.14584 0.04688,-0.26562 0.14063,-0.35937c0.10416,-0.10416 0.23438,-0.15625 0.39063,-0.15625c0.14583,0 0.26563,0.05209 0.35938,0.15625c0.10416,0.09375 0.15625,0.21354 0.15625,0.35938v9.375c0,0.14584 -0.05209,0.27084 -0.15625,0.375c-0.09375,0.09375 -0.21354,0.14063 -0.35937,0.14063zM204.51301,180.98373c-0.46875,0 -0.89062,-0.10937 -1.26562,-0.32812c-0.36459,-0.22916 -0.65625,-0.53646 -0.875,-0.92187c-0.20834,-0.38541 -0.3125,-0.82812 -0.3125,-1.32812v-6.51562c0,-0.14584 0.04688,-0.26562 0.14063,-0.35937c0.09375,-0.10416 0.21875,-0.15625 0.375,-0.15625c0.14583,0 0.26563,0.05209 0.35938,0.15625c0.10416,0.09375 0.15625,0.21354 0.15625,0.35938v6.51563c0,0.45834 0.13021,0.83334 0.39063,1.125c0.27083,0.28125 0.61458,0.42188 1.03125,0.42188h0.35938c0.14583,0 0.26041,0.05209 0.34375,0.15625c0.09375,0.09375 0.14063,0.21875 0.14063,0.375c0,0.14584 -0.05209,0.26563 -0.15625,0.35938c-0.10417,0.09375 -0.23959,0.14063 -0.40625,0.14063zM201.20051,174.85873c-0.13542,0 -0.25,-0.04166 -0.34375,-0.125c-0.08334,-0.09375 -0.125,-0.20312 -0.125,-0.32812c0,-0.125 0.04166,-0.22916 0.125,-0.3125c0.09375,-0.09375 0.20833,-0.14062 0.34375,-0.14062h3.39063c0.13541,0 0.24479,0.04688 0.32813,0.14063c0.09375,0.08334 0.14063,0.1875 0.14063,0.3125c0,0.125 -0.04687,0.23438 -0.14062,0.32813c-0.08334,0.08334 -0.19271,0.125 -0.32812,0.125zM210.33961,181.04623c-0.70833,0 -1.34375,-0.15625 -1.90625,-0.46875c-0.5625,-0.32291 -1.00521,-0.76562 -1.32812,-1.32812c-0.3125,-0.5625 -0.46875,-1.19791 -0.46875,-1.90625c0,-0.71875 0.15625,-1.35416 0.46875,-1.90625c0.32292,-0.5625 0.76563,-1.00521 1.32813,-1.32812c0.5625,-0.32291 1.19792,-0.48437 1.90625,-0.48437c0.70833,0 1.33854,0.16146 1.89063,0.48438c0.5625,0.32291 1,0.76563 1.3125,1.32813c0.32292,0.55209 0.48959,1.1875 0.5,1.90625c0,0.70834 -0.16146,1.34375 -0.48437,1.90625c-0.32291,0.5625 -0.76562,1.00521 -1.32812,1.32813c-0.55209,0.3125 -1.18229,0.46875 -1.89062,0.46875zM210.33961,180.12435c0.52083,0 0.98438,-0.11979 1.39063,-0.35937c0.40625,-0.25 0.72396,-0.58334 0.95313,-1c0.22916,-0.41666 0.34375,-0.89062 0.34375,-1.42187c0,-0.53125 -0.11458,-1.00521 -0.34375,-1.42187c-0.22917,-0.42709 -0.54687,-0.76041 -0.95312,-1c-0.40625,-0.23959 -0.86979,-0.35937 -1.39062,-0.35937c-0.51042,0 -0.97396,0.11979 -1.39062,0.35938c-0.40625,0.23959 -0.72917,0.57291 -0.96875,1c-0.22917,0.41666 -0.34375,0.89063 -0.34375,1.42188c0,0.53125 0.11458,1.00521 0.34375,1.42188c0.23958,0.41666 0.5625,0.75 0.96875,1c0.41667,0.23959 0.88021,0.35938 1.39063,0.35938zM223.15846,181.04623c-0.69791,0 -1.31771,-0.15625 -1.85937,-0.46875c-0.54166,-0.3125 -0.96875,-0.75 -1.28125,-1.3125c-0.30209,-0.5625 -0.45312,-1.20312 -0.45312,-1.92187c0,-0.72916 0.15625,-1.36979 0.46875,-1.92187c0.32291,-0.5625 0.76563,-1 1.32813,-1.3125c0.5625,-0.32291 1.19791,-0.48437 1.90625,-0.48437c0.71875,0 1.35416,0.16146 1.90625,0.48438c0.5625,0.3125 1,0.75 1.3125,1.3125c0.3125,0.55209 0.47396,1.19271 0.48438,1.92188l-0.59375,0.32813c0,0.65625 -0.14062,1.23959 -0.42187,1.75c-0.27084,0.51041 -0.65104,0.91146 -1.14062,1.20313c-0.47916,0.28125 -1.03125,0.42188 -1.65625,0.42188zM223.29912,183.85873c-0.70834,0 -1.32812,-0.13021 -1.85937,-0.39062c-0.53125,-0.26041 -0.96875,-0.61979 -1.3125,-1.07812c-0.10416,-0.10416 -0.15104,-0.21875 -0.14062,-0.34375c0.02084,-0.125 0.08854,-0.22396 0.20313,-0.29687c0.11459,-0.08334 0.24479,-0.11459 0.39063,-0.09375c0.14584,0.03125 0.25521,0.09896 0.32813,0.20313c0.26041,0.32291 0.59375,0.58334 1,0.78125c0.40625,0.19791 0.875,0.29688 1.40625,0.29688c0.48959,0 0.93229,-0.125 1.32813,-0.375c0.40625,-0.23959 0.72396,-0.57812 0.95313,-1.01562c0.23959,-0.42709 0.35938,-0.93229 0.35938,-1.51562v-2.03125l0.39063,-0.78125l0.625,0.125v2.71875c0,0.71875 -0.16146,1.36459 -0.48437,1.9375c-0.3125,0.57291 -0.74479,1.02604 -1.29687,1.35938c-0.55209,0.33334 -1.18229,0.5 -1.89062,0.5zM223.26787,180.12435c0.52084,0 0.98438,-0.11979 1.39063,-0.35937c0.40625,-0.23959 0.72396,-0.56771 0.95313,-0.98437c0.22916,-0.41666 0.34375,-0.89584 0.34375,-1.4375c0,-0.54166 -0.11459,-1.02084 -0.34375,-1.4375c-0.22916,-0.42709 -0.54687,-0.75521 -0.95312,-0.98437c-0.40625,-0.23959 -0.86979,-0.35937 -1.39062,-0.35937c-0.52084,0 -0.98959,0.11979 -1.40625,0.35938c-0.40625,0.22916 -0.72396,0.55729 -0.95312,0.98438c-0.22916,0.41666 -0.34375,0.89584 -0.34375,1.4375c0,0.54166 0.11459,1.02084 0.34375,1.4375c0.22916,0.41666 0.54688,0.74479 0.95313,0.98438c0.41666,0.23959 0.88541,0.35938 1.40625,0.35938zM232.27531,181.04623c-0.71875,0 -1.35416,-0.15625 -1.90625,-0.46875c-0.55209,-0.3125 -0.98959,-0.75 -1.3125,-1.3125c-0.3125,-0.5625 -0.46875,-1.20312 -0.46875,-1.92187c0,-0.72916 0.14584,-1.36979 0.4375,-1.92187c0.30209,-0.55209 0.71354,-0.98959 1.23438,-1.3125c0.53125,-0.32291 1.14063,-0.48437 1.82813,-0.48437c0.66666,0 1.25,0.15625 1.75,0.46875c0.51041,0.30209 0.90104,0.72396 1.17188,1.26563c0.28125,0.54166 0.42188,1.16146 0.42188,1.85938c0,0.13541 -0.04687,0.24479 -0.14062,0.32813c-0.08334,0.08334 -0.19791,0.125 -0.34375,0.125h-5.67187v-0.84375h5.78125l-0.57812,0.40625c0.01041,-0.51041 -0.08334,-0.96875 -0.28125,-1.375c-0.19791,-0.41666 -0.47916,-0.73959 -0.84375,-0.96875c-0.35416,-0.22916 -0.77604,-0.34375 -1.26562,-0.34375c-0.51041,0 -0.95834,0.11979 -1.34375,0.35938c-0.375,0.23959 -0.67187,0.57291 -0.89062,1c-0.20834,0.41666 -0.3125,0.89584 -0.3125,1.4375c0,0.54166 0.11979,1.02084 0.35938,1.4375c0.23959,0.41666 0.5625,0.74479 0.96875,0.98438c0.40625,0.23959 0.875,0.35938 1.40625,0.35938c0.32291,0 0.64584,-0.05209 0.96875,-0.15625c0.32291,-0.11459 0.58334,-0.25521 0.78125,-0.42187c0.09375,-0.08334 0.20313,-0.125 0.32813,-0.125c0.125,-0.01041 0.23438,0.02084 0.32813,0.09375c0.11459,0.10416 0.17188,0.21875 0.17188,0.34375c0.01041,0.125 -0.03646,0.23438 -0.14062,0.32813c-0.30209,0.25 -0.68229,0.45834 -1.14062,0.625c-0.44791,0.15625 -0.88021,0.23438 -1.29687,0.23438zM240.00566,180.98373c-0.46875,0 -0.89062,-0.10937 -1.26562,-0.32812c-0.36458,-0.22916 -0.65625,-0.53646 -0.875,-0.92187c-0.20833,-0.38541 -0.3125,-0.82812 -0.3125,-1.32812v-6.51562c0,-0.14584 0.04688,-0.26562 0.14063,-0.35937c0.09375,-0.10416 0.21875,-0.15625 0.375,-0.15625c0.14584,0 0.26563,0.05209 0.35938,0.15625c0.10417,0.09375 0.15625,0.21354 0.15625,0.35938v6.51563c0,0.45834 0.13021,0.83334 0.39063,1.125c0.27084,0.28125 0.61459,0.42188 1.03125,0.42188h0.35938c0.14584,0 0.26042,0.05209 0.34375,0.15625c0.09375,0.09375 0.14063,0.21875 0.14063,0.375c0,0.14584 -0.05208,0.26563 -0.15625,0.35938c-0.10416,0.09375 -0.23958,0.14063 -0.40625,0.14063zM236.69316,174.85873c-0.13541,0 -0.25,-0.04166 -0.34375,-0.125c-0.08333,-0.09375 -0.125,-0.20312 -0.125,-0.32812c0,-0.125 0.04167,-0.22916 0.125,-0.3125c0.09375,-0.09375 0.20834,-0.14062 0.34375,-0.14062h3.39063c0.13542,0 0.24479,0.04688 0.32813,0.14063c0.09375,0.08334 0.14063,0.1875 0.14063,0.3125c0,0.125 -0.04687,0.23438 -0.14062,0.32813c-0.08333,0.08334 -0.19271,0.125 -0.32812,0.125zM249.59675,181.06185c-0.63541,0 -1.20312,-0.13021 -1.70312,-0.39062c-0.48959,-0.26041 -0.88021,-0.64062 -1.17187,-1.14062c-0.29166,-0.51041 -0.4375,-1.13021 -0.4375,-1.85937v-3.46875c0,-0.14584 0.04688,-0.26562 0.14063,-0.35937c0.10416,-0.10416 0.22916,-0.15625 0.375,-0.15625c0.14584,0 0.26563,0.05209 0.35938,0.15625c0.10416,0.09375 0.15625,0.21354 0.15625,0.35938v3.46875c0,0.54166 0.10416,0.99479 0.3125,1.35938c0.20834,0.35416 0.48959,0.61979 0.84375,0.79688c0.36459,0.17709 0.77604,0.26563 1.23438,0.26563c0.42709,0 0.81771,-0.08334 1.17188,-0.25c0.35416,-0.17709 0.63021,-0.41146 0.82813,-0.70312c0.20834,-0.29166 0.3125,-0.625 0.3125,-1h0.73438c-0.03125,0.5625 -0.1875,1.0625 -0.46875,1.5c-0.27084,0.4375 -0.64584,0.78646 -1.125,1.04688c-0.46875,0.25 -0.98959,0.375 -1.5625,0.375zM252.51866,180.98373c-0.14584,0 -0.26562,-0.04687 -0.35937,-0.14062c-0.09375,-0.09375 -0.14062,-0.21875 -0.14062,-0.375v-6.26562c0,-0.15625 0.04688,-0.28125 0.14063,-0.375c0.09375,-0.09375 0.21354,-0.14062 0.35938,-0.14062c0.15625,0 0.28125,0.04688 0.375,0.14063c0.10416,0.09375 0.15625,0.21875 0.15625,0.375v6.26563c0,0.15625 -0.05209,0.28125 -0.15625,0.375c-0.09375,0.09375 -0.21875,0.14063 -0.375,0.14063zM257.99487,181.04623c-0.53125,0 -1.05729,-0.08854 -1.57812,-0.26562c-0.51042,-0.17709 -0.92187,-0.44271 -1.23437,-0.79687c-0.10417,-0.10416 -0.14584,-0.22396 -0.125,-0.35937c0.02083,-0.13541 0.08854,-0.25 0.20313,-0.34375c0.125,-0.09375 0.25,-0.13021 0.375,-0.10937c0.13541,0.02084 0.25,0.07813 0.34375,0.17188c0.20833,0.25 0.48958,0.44271 0.84375,0.57813c0.35416,0.13541 0.74479,0.20313 1.17188,0.20313c0.65625,0 1.13021,-0.11459 1.42188,-0.34375c0.29166,-0.22916 0.44271,-0.50521 0.45313,-0.82812c0,-0.3125 -0.15104,-0.57291 -0.45312,-0.78125c-0.30209,-0.20834 -0.80209,-0.375 -1.5,-0.5c-0.89584,-0.13541 -1.55209,-0.38021 -1.96875,-0.73437c-0.41667,-0.35416 -0.625,-0.77604 -0.625,-1.26562c0,-0.45834 0.11979,-0.83854 0.35938,-1.14062c0.23958,-0.30209 0.55729,-0.52604 0.95313,-0.67187c0.40625,-0.15625 0.84896,-0.23437 1.32813,-0.23437c0.59375,0 1.10416,0.10416 1.53125,0.3125c0.43751,0.19791 0.78647,0.47396 1.04689,0.82813c0.09375,0.11459 0.13021,0.23438 0.10938,0.35938c-0.01041,0.125 -0.07812,0.22396 -0.20312,0.29688c-0.11458,0.0625 -0.23958,0.08334 -0.375,0.0625c-0.13542,-0.02084 -0.25001,-0.08334 -0.34376,-0.1875c-0.22917,-0.26041 -0.48959,-0.44791 -0.78125,-0.5625c-0.29167,-0.125 -0.63021,-0.1875 -1.01562,-0.1875c-0.48959,0 -0.88021,0.09896 -1.17187,0.29688c-0.29167,0.19791 -0.4375,0.44791 -0.4375,0.75c0,0.20834 0.05208,0.39063 0.15625,0.54688c0.11458,0.14584 0.30729,0.27604 0.57813,0.39063c0.27083,0.11459 0.65104,0.21354 1.14063,0.29688c0.66666,0.10416 1.19271,0.26041 1.57813,0.46875c0.39584,0.20834 0.67189,0.45313 0.82814,0.73438c0.16667,0.28125 0.25,0.58334 0.25,0.90625c0,0.42709 -0.125,0.79688 -0.375,1.10938c-0.23958,0.3125 -0.57813,0.55729 -1.01564,0.73438c-0.42709,0.17709 -0.91667,0.26563 -1.46875,0.26563zM265.92873,181.04623c-0.71875,0 -1.35416,-0.15625 -1.90625,-0.46875c-0.55209,-0.3125 -0.98959,-0.75 -1.3125,-1.3125c-0.3125,-0.5625 -0.46875,-1.20312 -0.46875,-1.92187c0,-0.72916 0.14584,-1.36979 0.4375,-1.92187c0.30209,-0.55209 0.71354,-0.98959 1.23438,-1.3125c0.53125,-0.32291 1.14063,-0.48437 1.82813,-0.48437c0.66666,0 1.25,0.15625 1.75,0.46875c0.51042,0.30209 0.90104,0.72396 1.17188,1.26563c0.28125,0.54166 0.42188,1.16146 0.42188,1.85938c0,0.13541 -0.04687,0.24479 -0.14062,0.32813c-0.08333,0.08334 -0.19791,0.125 -0.34375,0.125h-5.67187v-0.84375h5.78125l-0.57812,0.40625c0.01042,-0.51041 -0.08333,-0.96875 -0.28125,-1.375c-0.19791,-0.41666 -0.47916,-0.73959 -0.84375,-0.96875c-0.35416,-0.22916 -0.77604,-0.34375 -1.26562,-0.34375c-0.51041,0 -0.95834,0.11979 -1.34375,0.35938c-0.375,0.23959 -0.67187,0.57291 -0.89062,1c-0.20834,0.41666 -0.3125,0.89584 -0.3125,1.4375c0,0.54166 0.11979,1.02084 0.35938,1.4375c0.23959,0.41666 0.5625,0.74479 0.96875,0.98438c0.40625,0.23959 0.875,0.35938 1.40625,0.35938c0.32291,0 0.64584,-0.05209 0.96875,-0.15625c0.32291,-0.11459 0.58334,-0.25521 0.78125,-0.42187c0.09375,-0.08334 0.20313,-0.125 0.32813,-0.125c0.125,-0.01041 0.23438,0.02084 0.32813,0.09375c0.11459,0.10416 0.17188,0.21875 0.17188,0.34375c0.01042,0.125 -0.03646,0.23438 -0.14062,0.32813c-0.30208,0.25 -0.68229,0.45834 -1.14062,0.625c-0.44791,0.15625 -0.88021,0.23438 -1.29687,0.23438zM271.72153,180.98373c-0.13541,0 -0.25521,-0.04687 -0.35937,-0.14062c-0.09375,-0.09375 -0.14062,-0.21875 -0.14062,-0.375v-6.76562c0,-0.61459 0.10416,-1.15625 0.3125,-1.625c0.21875,-0.47916 0.53646,-0.84896 0.95313,-1.10937c0.41666,-0.26041 0.92709,-0.39062 1.53125,-0.39062c0.15625,0 0.28125,0.04688 0.375,0.14063c0.10416,0.08334 0.15625,0.19271 0.15625,0.32813c0,0.125 -0.05209,0.23438 -0.15625,0.32813c-0.09375,0.09375 -0.21875,0.14063 -0.375,0.14063c-0.39584,0 -0.72396,0.08854 -0.98437,0.26563c-0.26041,0.17709 -0.45834,0.43229 -0.59375,0.76563c-0.125,0.32291 -0.1875,0.69271 -0.1875,1.10938v6.8125c0,0.15625 -0.04687,0.28125 -0.14062,0.375c-0.09375,0.09375 -0.22396,0.14063 -0.39062,0.14063zM270.37778,174.85873c-0.14583,0 -0.26041,-0.04166 -0.34375,-0.125c-0.08333,-0.09375 -0.125,-0.20312 -0.125,-0.32812c0,-0.125 0.04167,-0.22916 0.125,-0.3125c0.08334,-0.09375 0.19792,-0.14062 0.34375,-0.14062h3.46875c0.14584,0 0.26041,0.04688 0.34375,0.14063c0.08334,0.08334 0.125,0.1875 0.125,0.3125c0,0.125 -0.04166,0.23438 -0.125,0.32813c-0.08334,0.08334 -0.19791,0.125 -0.34375,0.125zM278.86524,181.06185c-0.63542,0 -1.20312,-0.13021 -1.70312,-0.39062c-0.48959,-0.26041 -0.88021,-0.64062 -1.17187,-1.14062c-0.29166,-0.51041 -0.4375,-1.13021 -0.4375,-1.85937v-3.46875c0,-0.14584 0.04688,-0.26562 0.14063,-0.35937c0.10416,-0.10416 0.22916,-0.15625 0.375,-0.15625c0.14583,0 0.26563,0.05209 0.35938,0.15625c0.10416,0.09375 0.15625,0.21354 0.15625,0.35938v3.46875c0,0.54166 0.10416,0.99479 0.3125,1.35938c0.20833,0.35416 0.48958,0.61979 0.84375,0.79688c0.36458,0.17709 0.77604,0.26563 1.23438,0.26563c0.42708,0 0.81771,-0.08334 1.17188,-0.25c0.35416,-0.17709 0.63021,-0.41146 0.82813,-0.70312c0.20833,-0.29166 0.3125,-0.625 0.3125,-1h0.73438c-0.03125,0.5625 -0.1875,1.0625 -0.46875,1.5c-0.27084,0.4375 -0.64584,0.78646 -1.125,1.04688c-0.46875,0.25 -0.98959,0.375 -1.5625,0.375zM281.78711,180.98373c-0.14584,0 -0.26562,-0.04687 -0.35937,-0.14062c-0.09375,-0.09375 -0.14062,-0.21875 -0.14062,-0.375v-6.26562c0,-0.15625 0.04688,-0.28125 0.14063,-0.375c0.09375,-0.09375 0.21354,-0.14062 0.35938,-0.14062c0.15625,0 0.28125,0.04688 0.375,0.14063c0.10416,0.09375 0.15625,0.21875 0.15625,0.375v6.26563c0,0.15625 -0.05209,0.28125 -0.15625,0.375c-0.09375,0.09375 -0.21875,0.14063 -0.375,0.14063zM286.27896,180.98373c-0.35417,0 -0.67187,-0.09896 -0.95312,-0.29687c-0.27084,-0.19791 -0.48437,-0.46875 -0.64062,-0.8125c-0.15625,-0.34375 -0.23437,-0.74479 -0.23437,-1.20312v-7.59375c0,-0.14584 0.04688,-0.26562 0.14063,-0.35937c0.09375,-0.09375 0.21354,-0.14062 0.35938,-0.14062c0.15625,0 0.28125,0.04688 0.375,0.14063c0.09375,0.09375 0.14063,0.21354 0.14063,0.35938v7.59375c0,0.38541 0.07291,0.69791 0.21875,0.9375c0.15625,0.23959 0.35416,0.35938 0.59375,0.35938h0.34375c0.13541,0 0.23958,0.04688 0.3125,0.14063c0.08333,0.09375 0.125,0.21875 0.125,0.375c0,0.14584 -0.05729,0.26563 -0.17187,0.35938c-0.10417,0.09375 -0.24479,0.14063 -0.42187,0.14063zM295.69262,181.04623c-0.69792,0 -1.32812,-0.16146 -1.89062,-0.48437c-0.5625,-0.32291 -1.00521,-0.76041 -1.32812,-1.3125c-0.32292,-0.5625 -0.48437,-1.20312 -0.48437,-1.92187c0,-0.69791 0.15625,-1.32812 0.46875,-1.89062c0.32291,-0.5625 0.75521,-1.00521 1.29688,-1.32812c0.54166,-0.32291 1.15104,-0.48437 1.82813,-0.48437c0.59375,0 1.13021,0.13021 1.60938,0.39063c0.48958,0.25 0.88021,0.58334 1.17188,1v-3.92187c0,-0.15625 0.04688,-0.28125 0.14063,-0.375c0.10416,-0.09375 0.22916,-0.14062 0.375,-0.14062c0.15625,0 0.28125,0.04688 0.375,0.14063c0.09375,0.09375 0.14063,0.21875 0.14063,0.375v6.29688c-0.01042,0.6875 -0.18229,1.3125 -0.51562,1.875c-0.32292,0.55209 -0.76042,0.98959 -1.3125,1.3125c-0.55209,0.3125 -1.17709,0.46875 -1.875,0.46875zM295.69262,180.12435c0.52083,0 0.97916,-0.11979 1.375,-0.35937c0.40625,-0.25 0.72396,-0.58334 0.95313,-1c0.23958,-0.42709 0.35938,-0.90625 0.35938,-1.4375c0,-0.52084 -0.11979,-0.98959 -0.35937,-1.40625c-0.22917,-0.42709 -0.54687,-0.76041 -0.95312,-1c-0.39584,-0.23959 -0.85417,-0.35937 -1.375,-0.35937c-0.5,0 -0.95834,0.11979 -1.375,0.35938c-0.40625,0.23959 -0.72917,0.57291 -0.96875,1c-0.23959,0.41666 -0.35937,0.88541 -0.35937,1.40625c0,0.53125 0.11979,1.01041 0.35938,1.4375c0.23958,0.41666 0.5625,0.75 0.96875,1c0.41666,0.23959 0.875,0.35938 1.375,0.35938zM305.00618,181.04623c-0.67709,0 -1.28646,-0.16146 -1.82812,-0.48437c-0.54167,-0.32291 -0.97396,-0.76041 -1.29688,-1.3125c-0.3125,-0.5625 -0.46875,-1.19791 -0.46875,-1.90625c0,-0.70834 0.16146,-1.34375 0.48437,-1.90625c0.32292,-0.5625 0.76563,-1.00521 1.32813,-1.32812c0.5625,-0.32291 1.19271,-0.48437 1.89063,-0.48437c0.70834,0 1.33854,0.16146 1.89063,0.48438c0.55209,0.32291 0.98959,0.76563 1.3125,1.32813c0.32292,0.5625 0.48959,1.19791 0.5,1.90625l-0.40625,0.32813c0,0.63541 -0.15104,1.20834 -0.45312,1.71875c-0.29166,0.51041 -0.69271,0.91666 -1.20312,1.21875c-0.51041,0.29166 -1.09375,0.4375 -1.75,0.4375zM305.11555,180.12435c0.52084,0 0.97916,-0.11979 1.375,-0.35937c0.40625,-0.25 0.72396,-0.58334 0.95313,-1c0.23959,-0.42709 0.35938,-0.90104 0.35938,-1.42187c0,-0.53125 -0.11979,-1.00521 -0.35937,-1.42187c-0.22916,-0.41666 -0.54687,-0.74479 -0.95312,-0.98437c-0.39584,-0.25 -0.85416,-0.375 -1.375,-0.375c-0.5,0 -0.95834,0.125 -1.375,0.375c-0.40625,0.23959 -0.72916,0.56771 -0.96875,0.98438c-0.23959,0.41666 -0.35938,0.89063 -0.35938,1.42188c0,0.52084 0.11979,0.99479 0.35938,1.42188c0.23959,0.41666 0.5625,0.75 0.96875,1c0.41666,0.23959 0.875,0.35938 1.375,0.35938zM308.30305,180.98373c-0.14583,0 -0.27083,-0.04687 -0.375,-0.14062c-0.09375,-0.09375 -0.14062,-0.21354 -0.14062,-0.35937v-2.28125l0.25,-1.0625l0.78125,0.20313v3.14063c0,0.14584 -0.04687,0.26563 -0.14062,0.35938c-0.09375,0.09375 -0.21875,0.14063 -0.375,0.14063zM313.6699,180.98373c-0.46875,0 -0.89062,-0.10937 -1.26562,-0.32812c-0.36458,-0.22916 -0.65625,-0.53646 -0.875,-0.92187c-0.20833,-0.38541 -0.3125,-0.82812 -0.3125,-1.32812v-6.51562c0,-0.14584 0.04688,-0.26562 0.14063,-0.35937c0.09375,-0.10416 0.21875,-0.15625 0.375,-0.15625c0.14584,0 0.26563,0.05209 0.35938,0.15625c0.10417,0.09375 0.15625,0.21354 0.15625,0.35938v6.51563c0,0.45834 0.13021,0.83334 0.39063,1.125c0.27084,0.28125 0.61459,0.42188 1.03125,0.42188h0.35938c0.14584,0 0.26042,0.05209 0.34375,0.15625c0.09375,0.09375 0.14063,0.21875 0.14063,0.375c0,0.14584 -0.05208,0.26563 -0.15625,0.35938c-0.10416,0.09375 -0.23958,0.14063 -0.40625,0.14063zM310.3574,174.85873c-0.13541,0 -0.25,-0.04166 -0.34375,-0.125c-0.08333,-0.09375 -0.125,-0.20312 -0.125,-0.32812c0,-0.125 0.04167,-0.22916 0.125,-0.3125c0.09375,-0.09375 0.20834,-0.14062 0.34375,-0.14062h3.39063c0.13542,0 0.24479,0.04688 0.32813,0.14063c0.09375,0.08334 0.14063,0.1875 0.14063,0.3125c0,0.125 -0.04687,0.23438 -0.14062,0.32813c-0.08333,0.08334 -0.19271,0.125 -0.32812,0.125zM319.38718,181.04623c-0.67709,0 -1.28646,-0.16146 -1.82812,-0.48437c-0.54166,-0.32291 -0.97396,-0.76041 -1.29687,-1.3125c-0.3125,-0.5625 -0.46875,-1.19791 -0.46875,-1.90625c0,-0.70834 0.16146,-1.34375 0.48438,-1.90625c0.32291,-0.5625 0.76563,-1.00521 1.32813,-1.32812c0.5625,-0.32291 1.19271,-0.48437 1.89063,-0.48437c0.70834,0 1.33854,0.16146 1.89063,0.48438c0.55209,0.32291 0.98959,0.76563 1.3125,1.32813c0.32291,0.5625 0.48959,1.19791 0.5,1.90625l-0.40625,0.32813c0,0.63541 -0.15104,1.20834 -0.45312,1.71875c-0.29166,0.51041 -0.69271,0.91666 -1.20312,1.21875c-0.51041,0.29166 -1.09375,0.4375 -1.75,0.4375zM319.49652,180.12435c0.52084,0 0.97916,-0.11979 1.375,-0.35937c0.40625,-0.25 0.72396,-0.58334 0.95313,-1c0.23959,-0.42709 0.35938,-0.90104 0.35938,-1.42187c0,-0.53125 -0.11979,-1.00521 -0.35937,-1.42187c-0.22916,-0.41666 -0.54687,-0.74479 -0.95312,-0.98437c-0.39584,-0.25 -0.85416,-0.375 -1.375,-0.375c-0.5,0 -0.95834,0.125 -1.375,0.375c-0.40625,0.23959 -0.72916,0.56771 -0.96875,0.98438c-0.23959,0.41666 -0.35937,0.89063 -0.35937,1.42188c0,0.52084 0.11979,0.99479 0.35938,1.42188c0.23959,0.41666 0.5625,0.75 0.96875,1c0.41666,0.23959 0.875,0.35938 1.375,0.35938zM322.68402,180.98373c-0.14584,0 -0.27084,-0.04687 -0.375,-0.14062c-0.09375,-0.09375 -0.14062,-0.21354 -0.14062,-0.35937v-2.28125l0.25,-1.0625l0.78125,0.20313v3.14063c0,0.14584 -0.04687,0.26563 -0.14062,0.35938c-0.09375,0.09375 -0.21875,0.14063 -0.375,0.14063zM330.01851,180.98373c-0.13541,0 -0.25521,-0.04687 -0.35937,-0.14062c-0.09375,-0.09375 -0.14062,-0.21875 -0.14062,-0.375v-6.76562c0,-0.61459 0.10416,-1.15625 0.3125,-1.625c0.21875,-0.47916 0.53646,-0.84896 0.95313,-1.10937c0.41666,-0.26041 0.92709,-0.39062 1.53125,-0.39062c0.15625,0 0.28125,0.04688 0.375,0.14063c0.10416,0.08334 0.15625,0.19271 0.15625,0.32813c0,0.125 -0.05209,0.23438 -0.15625,0.32813c-0.09375,0.09375 -0.21875,0.14063 -0.375,0.14063c-0.39584,0 -0.72396,0.08854 -0.98437,0.26563c-0.26041,0.17709 -0.45834,0.43229 -0.59375,0.76563c-0.125,0.32291 -0.1875,0.69271 -0.1875,1.10938v6.8125c0,0.15625 -0.04687,0.28125 -0.14062,0.375c-0.09375,0.09375 -0.22396,0.14063 -0.39062,0.14063zM328.67476,174.85873c-0.14584,0 -0.26041,-0.04166 -0.34375,-0.125c-0.08334,-0.09375 -0.125,-0.20312 -0.125,-0.32812c0,-0.125 0.04166,-0.22916 0.125,-0.3125c0.08334,-0.09375 0.19791,-0.14062 0.34375,-0.14062h3.46875c0.14584,0 0.26041,0.04688 0.34375,0.14063c0.08334,0.08334 0.125,0.1875 0.125,0.3125c0,0.125 -0.04166,0.23438 -0.125,0.32813c-0.08334,0.08334 -0.19791,0.125 -0.34375,0.125zM334.4122,176.49935c0.03125,-0.55209 0.17709,-1.04687 0.4375,-1.48437c0.26041,-0.4375 0.59896,-0.78125 1.01563,-1.03125c0.42709,-0.25 0.89584,-0.375 1.40625,-0.375c0.41666,0 0.73438,0.05729 0.95313,0.17188c0.21875,0.11459 0.30209,0.28646 0.25,0.51563c-0.03125,0.13541 -0.08854,0.22396 -0.17187,0.26563c-0.08334,0.04166 -0.1875,0.05729 -0.3125,0.04688c-0.11459,-0.01041 -0.25,-0.01562 -0.40625,-0.01562c-0.5,-0.05209 -0.94271,-0.00521 -1.32812,0.14063c-0.38541,0.14584 -0.69271,0.36979 -0.92187,0.67188c-0.21875,0.30209 -0.32812,0.66666 -0.32812,1.09375zM334.49033,180.98373c-0.15625,0 -0.28125,-0.04166 -0.375,-0.125c-0.08334,-0.09375 -0.125,-0.21875 -0.125,-0.375v-6.28125c0,-0.16666 0.04166,-0.29166 0.125,-0.375c0.09375,-0.09375 0.21875,-0.14062 0.375,-0.14062c0.16666,0 0.29166,0.04688 0.375,0.14063c0.09375,0.08334 0.14063,0.20834 0.14063,0.375v6.28125c0,0.15625 -0.04687,0.28125 -0.14062,0.375c-0.08334,0.08334 -0.20834,0.125 -0.375,0.125zM342.87375,181.04623c-0.70834,0 -1.34375,-0.15625 -1.90625,-0.46875c-0.5625,-0.32291 -1.00521,-0.76562 -1.32812,-1.32812c-0.3125,-0.5625 -0.46875,-1.19791 -0.46875,-1.90625c0,-0.71875 0.15625,-1.35416 0.46875,-1.90625c0.32291,-0.5625 0.76563,-1.00521 1.32813,-1.32812c0.5625,-0.32291 1.19791,-0.48437 1.90625,-0.48437c0.70834,0 1.33854,0.16146 1.89063,0.48438c0.5625,0.32291 1,0.76563 1.3125,1.32813c0.32291,0.55209 0.48959,1.1875 0.5,1.90625c0,0.70834 -0.16146,1.34375 -0.48437,1.90625c-0.32291,0.5625 -0.76562,1.00521 -1.32812,1.32813c-0.55209,0.3125 -1.18229,0.46875 -1.89062,0.46875zM342.87375,180.12435c0.52084,0 0.98438,-0.11979 1.39063,-0.35937c0.40625,-0.25 0.72396,-0.58334 0.95313,-1c0.22916,-0.41666 0.34375,-0.89062 0.34375,-1.42187c0,-0.53125 -0.11459,-1.00521 -0.34375,-1.42187c-0.22916,-0.42709 -0.54687,-0.76041 -0.95312,-1c-0.40625,-0.23959 -0.86979,-0.35937 -1.39062,-0.35937c-0.51041,0 -0.97396,0.11979 -1.39062,0.35938c-0.40625,0.23959 -0.72916,0.57291 -0.96875,1c-0.22916,0.41666 -0.34375,0.89063 -0.34375,1.42188c0,0.53125 0.11459,1.00521 0.34375,1.42188c0.23959,0.41666 0.5625,0.75 0.96875,1c0.41666,0.23959 0.88021,0.35938 1.39063,0.35938zM358.4281,180.98373c-0.14584,0 -0.27084,-0.04687 -0.375,-0.14062c-0.09375,-0.09375 -0.14062,-0.21354 -0.14062,-0.35937v-3.84375c0,-0.63541 -0.16666,-1.13541 -0.5,-1.5c-0.32291,-0.36459 -0.74479,-0.54687 -1.26562,-0.54687c-0.55209,0 -1.00521,0.18229 -1.35937,0.54688c-0.34375,0.36459 -0.51041,0.85416 -0.5,1.46875h-0.92187c0.01041,-0.59375 0.14063,-1.11459 0.39063,-1.5625c0.25,-0.45834 0.58854,-0.8125 1.01563,-1.0625c0.4375,-0.25 0.93229,-0.375 1.48438,-0.375c0.52084,0 0.98438,0.125 1.39063,0.375c0.40625,0.25 0.72396,0.60416 0.95313,1.0625c0.22916,0.44791 0.34375,0.97916 0.34375,1.59375v3.84375c0,0.14584 -0.04687,0.26563 -0.14062,0.35938c-0.09375,0.09375 -0.21875,0.14063 -0.375,0.14063zM349.09998,180.98373c-0.15625,0 -0.28125,-0.04687 -0.375,-0.14062c-0.09375,-0.09375 -0.14062,-0.21354 -0.14062,-0.35937v-6.26562c0,-0.15625 0.04688,-0.28125 0.14063,-0.375c0.09375,-0.10416 0.21875,-0.15625 0.375,-0.15625c0.15625,0 0.27604,0.05209 0.35938,0.15625c0.09375,0.09375 0.14063,0.21875 0.14063,0.375v6.26563c0,0.14584 -0.04687,0.26563 -0.14062,0.35938c-0.08334,0.09375 -0.20312,0.14063 -0.35937,0.14063zM353.77185,180.98373c-0.14584,0 -0.27084,-0.04687 -0.375,-0.14062c-0.09375,-0.09375 -0.14062,-0.21354 -0.14062,-0.35937v-3.84375c0,-0.63541 -0.16666,-1.13541 -0.5,-1.5c-0.32291,-0.36459 -0.73959,-0.54687 -1.25,-0.54687c-0.55209,0 -1.01041,0.18229 -1.375,0.54688c-0.35416,0.35416 -0.53125,0.81771 -0.53125,1.39063h-0.71875c0.01041,-0.5625 0.13021,-1.0625 0.35938,-1.5c0.23959,-0.44791 0.5625,-0.79687 0.96875,-1.04687c0.41666,-0.25 0.88021,-0.375 1.39063,-0.375c0.53125,0 0.99479,0.125 1.39063,0.375c0.40625,0.25 0.72396,0.60416 0.95313,1.0625c0.22916,0.44791 0.34375,0.97916 0.34375,1.59375v3.84375c0,0.14584 -0.04687,0.26563 -0.14062,0.35938c-0.09375,0.09375 -0.21875,0.14063 -0.375,0.14063z" fill="#000000" fill-rule="nonzero" stroke="none" stroke-width="1" stroke-linecap="square"/><path d="M157.0784,196.98373c-0.46875,0 -0.89062,-0.10937 -1.26562,-0.32812c-0.36459,-0.22916 -0.65625,-0.53646 -0.875,-0.92187c-0.20834,-0.38541 -0.3125,-0.82812 -0.3125,-1.32812v-6.51562c0,-0.14584 0.04688,-0.26562 0.14063,-0.35937c0.09375,-0.10416 0.21875,-0.15625 0.375,-0.15625c0.14584,0 0.26563,0.05209 0.35938,0.15625c0.10416,0.09375 0.15625,0.21354 0.15625,0.35938v6.51563c0,0.45834 0.13021,0.83334 0.39063,1.125c0.27084,0.28125 0.61459,0.42188 1.03125,0.42188h0.35938c0.14584,0 0.26041,0.05209 0.34375,0.15625c0.09375,0.09375 0.14063,0.21875 0.14063,0.375c0,0.14584 -0.05209,0.26563 -0.15625,0.35938c-0.10416,0.09375 -0.23959,0.14063 -0.40625,0.14063zM153.7659,190.85873c-0.13541,0 -0.25,-0.04166 -0.34375,-0.125c-0.08334,-0.09375 -0.125,-0.20312 -0.125,-0.32812c0,-0.125 0.04166,-0.22916 0.125,-0.3125c0.09375,-0.09375 0.20834,-0.14062 0.34375,-0.14062h3.39063c0.13541,0 0.24479,0.04688 0.32813,0.14063c0.09375,0.08334 0.14063,0.1875 0.14063,0.3125c0,0.125 -0.04687,0.23438 -0.14062,0.32813c-0.08334,0.08334 -0.19271,0.125 -0.32812,0.125zM160.10813,194.01498c-0.15625,0 -0.28125,-0.04687 -0.375,-0.14062c-0.09375,-0.10416 -0.14062,-0.22916 -0.14062,-0.375v-6.40625c0,-0.15625 0.04688,-0.28125 0.14063,-0.375c0.09375,-0.09375 0.21875,-0.14062 0.375,-0.14062c0.15625,0 0.27604,0.04688 0.35938,0.14063c0.09375,0.09375 0.14063,0.21875 0.14063,0.375v6.40625c0,0.14584 -0.04687,0.27084 -0.14062,0.375c-0.08334,0.09375 -0.20312,0.14063 -0.35937,0.14063zM165.8425,196.98373c-0.15625,0 -0.28125,-0.04687 -0.375,-0.14062c-0.09375,-0.10416 -0.14062,-0.22396 -0.14062,-0.35937v-3.46875c0,-0.55209 -0.10937,-1.00521 -0.32812,-1.35937c-0.20834,-0.35416 -0.49479,-0.61979 -0.85937,-0.79687c-0.35416,-0.17709 -0.75521,-0.26562 -1.20312,-0.26562c-0.4375,0 -0.83334,0.08334 -1.1875,0.25c-0.34375,0.16666 -0.61979,0.39584 -0.82812,0.6875c-0.20834,0.29166 -0.3125,0.625 -0.3125,1h-0.71875c0.01041,-0.5625 0.15625,-1.0625 0.4375,-1.5c0.29166,-0.4375 0.67188,-0.78125 1.14063,-1.03125c0.46875,-0.26041 0.99479,-0.39062 1.57813,-0.39062c0.625,0 1.1875,0.13541 1.6875,0.40625c0.5,0.26041 0.89063,0.64584 1.17188,1.15625c0.29166,0.5 0.4375,1.11459 0.4375,1.84375v3.46875c0,0.13541 -0.05209,0.25521 -0.15625,0.35938c-0.09375,0.09375 -0.20834,0.14063 -0.34375,0.14063zM160.10813,196.98373c-0.15625,0 -0.28125,-0.04687 -0.375,-0.14062c-0.09375,-0.09375 -0.14062,-0.21354 -0.14062,-0.35937v-6.26562c0,-0.16666 0.04688,-0.29687 0.14063,-0.39062c0.09375,-0.09375 0.21875,-0.14062 0.375,-0.14062c0.15625,0 0.27604,0.04688 0.35938,0.14063c0.09375,0.09375 0.14063,0.22396 0.14063,0.39063v6.26563c0,0.14584 -0.04687,0.26563 -0.14062,0.35938c-0.08334,0.09375 -0.20312,0.14063 -0.35937,0.14063zM171.91248,197.04623c-0.71875,0 -1.35416,-0.15625 -1.90625,-0.46875c-0.55209,-0.3125 -0.98959,-0.75 -1.3125,-1.3125c-0.3125,-0.5625 -0.46875,-1.20312 -0.46875,-1.92187c0,-0.72916 0.14584,-1.36979 0.4375,-1.92187c0.30209,-0.55209 0.71354,-0.98959 1.23438,-1.3125c0.53125,-0.32291 1.14063,-0.48437 1.82813,-0.48437c0.66666,0 1.25,0.15625 1.75,0.46875c0.51041,0.30209 0.90104,0.72396 1.17188,1.26563c0.28125,0.54166 0.42188,1.16146 0.42188,1.85938c0,0.13541 -0.04687,0.24479 -0.14062,0.32813c-0.08334,0.08334 -0.19791,0.125 -0.34375,0.125h-5.67187v-0.84375h5.78125l-0.57812,0.40625c0.01041,-0.51041 -0.08334,-0.96875 -0.28125,-1.375c-0.19791,-0.41666 -0.47916,-0.73959 -0.84375,-0.96875c-0.35416,-0.22916 -0.77604,-0.34375 -1.26562,-0.34375c-0.51041,0 -0.95834,0.11979 -1.34375,0.35938c-0.375,0.23959 -0.67187,0.57291 -0.89062,1c-0.20834,0.41666 -0.3125,0.89584 -0.3125,1.4375c0,0.54166 0.11979,1.02084 0.35938,1.4375c0.23959,0.41666 0.5625,0.74479 0.96875,0.98438c0.40625,0.23959 0.875,0.35938 1.40625,0.35938c0.32291,0 0.64584,-0.05209 0.96875,-0.15625c0.32291,-0.11459 0.58334,-0.25521 0.78125,-0.42187c0.09375,-0.08334 0.20313,-0.125 0.32813,-0.125c0.125,-0.01041 0.23438,0.02084 0.32813,0.09375c0.11459,0.10416 0.17188,0.21875 0.17188,0.34375c0.01041,0.125 -0.03646,0.23438 -0.14062,0.32813c-0.30209,0.25 -0.68229,0.45834 -1.14062,0.625c-0.44791,0.15625 -0.88021,0.23438 -1.29687,0.23438zM184.03229,197.12435c-0.57292,0 -1.10417,-0.08334 -1.59375,-0.25c-0.47917,-0.16666 -0.89584,-0.40104 -1.25,-0.70312c-0.35417,-0.30209 -0.625,-0.65104 -0.8125,-1.04687c-0.07292,-0.14584 -0.07812,-0.27604 -0.01562,-0.39062c0.07291,-0.125 0.19271,-0.20834 0.35938,-0.25c0.125,-0.04166 0.24479,-0.03125 0.35938,0.03125c0.125,0.0625 0.21875,0.15625 0.28125,0.28125c0.125,0.26041 0.31771,0.49479 0.57813,0.70313c0.26041,0.19791 0.56771,0.35416 0.92188,0.46875c0.35416,0.10416 0.74479,0.15625 1.17188,0.15625c0.46875,0 0.88541,-0.07291 1.25,-0.21875c0.36458,-0.15625 0.65104,-0.38541 0.85938,-0.6875c0.20833,-0.30209 0.3125,-0.66666 0.3125,-1.09375c0,-0.54166 -0.20312,-1.00521 -0.60937,-1.39062c-0.39584,-0.39584 -1.01562,-0.64584 -1.85937,-0.75c-1.04167,-0.125 -1.85937,-0.44791 -2.45312,-0.96875c-0.58334,-0.52084 -0.875,-1.15625 -0.875,-1.90625c0,-0.54166 0.14583,-1.01041 0.4375,-1.40625c0.29166,-0.40625 0.6875,-0.71875 1.1875,-0.9375c0.51041,-0.21875 1.09375,-0.32812 1.75,-0.32812c0.48958,0 0.93229,0.07813 1.32813,0.23438c0.40625,0.15625 0.75521,0.36459 1.04688,0.625c0.30208,0.25 0.54688,0.52604 0.73438,0.82813c0.08333,0.13541 0.10938,0.27084 0.07813,0.40625c-0.03125,0.13541 -0.10937,0.23959 -0.23437,0.3125c-0.125,0.0625 -0.26042,0.07291 -0.40625,0.03125c-0.13542,-0.05209 -0.23959,-0.14062 -0.3125,-0.26562c-0.125,-0.19791 -0.29167,-0.38541 -0.5,-0.5625c-0.19792,-0.1875 -0.4375,-0.33334 -0.71875,-0.4375c-0.28125,-0.11459 -0.625,-0.17709 -1.03125,-0.1875c-0.69792,0 -1.26042,0.15104 -1.6875,0.45313c-0.42709,0.30209 -0.64062,0.73438 -0.64062,1.29688c0,0.30209 0.07813,0.58334 0.23438,0.84375c0.16666,0.25 0.43229,0.46875 0.79688,0.65625c0.36458,0.17709 0.85938,0.30729 1.48438,0.39063c1.11458,0.16666 1.9375,0.51041 2.46875,1.03125c0.54166,0.51041 0.8125,1.1875 0.8125,2.03125c0,0.47916 -0.08854,0.90625 -0.26562,1.28125c-0.16667,0.36459 -0.41146,0.67709 -0.73437,0.9375c-0.3125,0.25 -0.68229,0.44271 -1.10937,0.57813c-0.41667,0.13541 -0.86459,0.20313 -1.34375,0.20313zM192.77736,197.04623c-0.69791,0 -1.32291,-0.16146 -1.875,-0.48437c-0.54166,-0.32291 -0.97396,-0.76041 -1.29687,-1.3125c-0.3125,-0.5625 -0.46875,-1.19791 -0.46875,-1.90625c0,-0.70834 0.15104,-1.34375 0.45313,-1.90625c0.30209,-0.5625 0.71354,-1.00521 1.23438,-1.32812c0.53125,-0.32291 1.13541,-0.48437 1.8125,-0.48437c0.54166,0 1.04166,0.10938 1.5,0.32813c0.45834,0.20834 0.86459,0.52604 1.21875,0.95313c0.09375,0.10416 0.125,0.21875 0.09375,0.34375c-0.02084,0.11459 -0.09375,0.21875 -0.21875,0.3125c-0.10416,0.07291 -0.21875,0.09896 -0.34375,0.07813c-0.11459,-0.03125 -0.21354,-0.09896 -0.29687,-0.20312c-0.52084,-0.58334 -1.17187,-0.875 -1.95312,-0.875c-0.48959,0 -0.92709,0.11979 -1.3125,0.35938c-0.375,0.23959 -0.66666,0.56771 -0.875,0.98438c-0.20834,0.41666 -0.3125,0.89584 -0.3125,1.4375c0,0.53125 0.10938,1.00521 0.32813,1.42188c0.22916,0.41666 0.54166,0.75 0.9375,1c0.39584,0.23959 0.85416,0.35938 1.375,0.35938c0.34375,0 0.66146,-0.04687 0.95313,-0.14062c0.29166,-0.09375 0.54688,-0.23959 0.76563,-0.4375c0.10416,-0.09375 0.21354,-0.14062 0.32813,-0.14062c0.11459,-0.01041 0.22396,0.02084 0.32813,0.09375c0.10416,0.10416 0.16146,0.21875 0.17188,0.34375c0.02084,0.125 -0.02084,0.22916 -0.125,0.3125c-0.64584,0.59375 -1.45312,0.89063 -2.42187,0.89063zM197.87944,192.49935c0.03125,-0.55209 0.17709,-1.04687 0.4375,-1.48437c0.26041,-0.4375 0.59896,-0.78125 1.01563,-1.03125c0.42709,-0.25 0.89584,-0.375 1.40625,-0.375c0.41666,0 0.73438,0.05729 0.95313,0.17188c0.21875,0.11459 0.30209,0.28646 0.25,0.51563c-0.03125,0.13541 -0.08854,0.22396 -0.17187,0.26563c-0.08334,0.04166 -0.1875,0.05729 -0.3125,0.04688c-0.11459,-0.01041 -0.25,-0.01562 -0.40625,-0.01562c-0.5,-0.05209 -0.94271,-0.00521 -1.32812,0.14063c-0.38541,0.14584 -0.69271,0.36979 -0.92187,0.67188c-0.21875,0.30209 -0.32812,0.66666 -0.32812,1.09375zM197.95758,196.98373c-0.15625,0 -0.28125,-0.04166 -0.375,-0.125c-0.08334,-0.09375 -0.125,-0.21875 -0.125,-0.375v-6.28125c0,-0.16666 0.04166,-0.29166 0.125,-0.375c0.09375,-0.09375 0.21875,-0.14062 0.375,-0.14062c0.16666,0 0.29166,0.04688 0.375,0.14063c0.09375,0.08334 0.14063,0.20834 0.14063,0.375v6.28125c0,0.15625 -0.04687,0.28125 -0.14062,0.375c-0.08334,0.08334 -0.20834,0.125 -0.375,0.125zM206.2316,197.04623c-0.67709,0 -1.28646,-0.16146 -1.82812,-0.48437c-0.54167,-0.32291 -0.97396,-0.76041 -1.29687,-1.3125c-0.3125,-0.5625 -0.46875,-1.19791 -0.46875,-1.90625c0,-0.70834 0.16146,-1.34375 0.48438,-1.90625c0.32291,-0.5625 0.76563,-1.00521 1.32813,-1.32812c0.5625,-0.32291 1.19271,-0.48437 1.89063,-0.48437c0.70833,0 1.33854,0.16146 1.89063,0.48438c0.55208,0.32291 0.98958,0.76563 1.3125,1.32813c0.32291,0.5625 0.48958,1.19791 0.5,1.90625l-0.40625,0.32813c0,0.63541 -0.15104,1.20834 -0.45312,1.71875c-0.29167,0.51041 -0.69271,0.91666 -1.20312,1.21875c-0.51042,0.29166 -1.09375,0.4375 -1.75,0.4375zM206.341,196.12435c0.52083,0 0.97916,-0.11979 1.375,-0.35937c0.40625,-0.25 0.72396,-0.58334 0.95313,-1c0.23958,-0.42709 0.35938,-0.90104 0.35938,-1.42187c0,-0.53125 -0.11979,-1.00521 -0.35937,-1.42187c-0.22917,-0.41666 -0.54687,-0.74479 -0.95312,-0.98437c-0.39584,-0.25 -0.85417,-0.375 -1.375,-0.375c-0.5,0 -0.95834,0.125 -1.375,0.375c-0.40625,0.23959 -0.72917,0.56771 -0.96875,0.98438c-0.23959,0.41666 -0.35937,0.89063 -0.35937,1.42188c0,0.52084 0.11979,0.99479 0.35938,1.42188c0.23958,0.41666 0.5625,0.75 0.96875,1c0.41666,0.23959 0.875,0.35938 1.375,0.35938zM209.5285,196.98373c-0.14584,0 -0.27084,-0.04687 -0.375,-0.14062c-0.09375,-0.09375 -0.14062,-0.21354 -0.14062,-0.35937v-2.28125l0.25,-1.0625l0.78125,0.20313v3.14063c0,0.14584 -0.04687,0.26563 -0.14062,0.35938c-0.09375,0.09375 -0.21875,0.14063 -0.375,0.14063zM214.89535,196.98373c-0.46875,0 -0.89062,-0.10937 -1.26562,-0.32812c-0.36459,-0.22916 -0.65625,-0.53646 -0.875,-0.92187c-0.20833,-0.38541 -0.3125,-0.82812 -0.3125,-1.32812v-6.51562c0,-0.14584 0.04688,-0.26562 0.14063,-0.35937c0.09375,-0.10416 0.21875,-0.15625 0.375,-0.15625c0.14584,0 0.26563,0.05209 0.35938,0.15625c0.10416,0.09375 0.15625,0.21354 0.15625,0.35938v6.51563c0,0.45834 0.13021,0.83334 0.39063,1.125c0.27083,0.28125 0.61458,0.42188 1.03125,0.42188h0.35938c0.14583,0 0.26041,0.05209 0.34375,0.15625c0.09375,0.09375 0.14063,0.21875 0.14063,0.375c0,0.14584 -0.05209,0.26563 -0.15625,0.35938c-0.10417,0.09375 -0.23959,0.14063 -0.40625,0.14063zM211.58285,190.85873c-0.13541,0 -0.25,-0.04166 -0.34375,-0.125c-0.08334,-0.09375 -0.125,-0.20312 -0.125,-0.32812c0,-0.125 0.04166,-0.22916 0.125,-0.3125c0.09375,-0.09375 0.20833,-0.14062 0.34375,-0.14062h3.39063c0.13541,0 0.24479,0.04688 0.32813,0.14063c0.09375,0.08334 0.14063,0.1875 0.14063,0.3125c0,0.125 -0.04687,0.23438 -0.14062,0.32813c-0.08334,0.08334 -0.19271,0.125 -0.32812,0.125zM220.65945,197.04623c-0.69791,0 -1.32291,-0.16146 -1.875,-0.48437c-0.54166,-0.32291 -0.97396,-0.76041 -1.29687,-1.3125c-0.3125,-0.5625 -0.46875,-1.19791 -0.46875,-1.90625c0,-0.70834 0.15104,-1.34375 0.45313,-1.90625c0.30209,-0.5625 0.71354,-1.00521 1.23438,-1.32812c0.53125,-0.32291 1.13541,-0.48437 1.8125,-0.48437c0.54166,0 1.04166,0.10938 1.5,0.32813c0.45834,0.20834 0.86459,0.52604 1.21875,0.95313c0.09375,0.10416 0.125,0.21875 0.09375,0.34375c-0.02083,0.11459 -0.09375,0.21875 -0.21875,0.3125c-0.10416,0.07291 -0.21875,0.09896 -0.34375,0.07813c-0.11458,-0.03125 -0.21354,-0.09896 -0.29687,-0.20312c-0.52083,-0.58334 -1.17187,-0.875 -1.95312,-0.875c-0.48959,0 -0.92709,0.11979 -1.3125,0.35938c-0.375,0.23959 -0.66666,0.56771 -0.875,0.98438c-0.20834,0.41666 -0.3125,0.89584 -0.3125,1.4375c0,0.53125 0.10938,1.00521 0.32813,1.42188c0.22916,0.41666 0.54166,0.75 0.9375,1c0.39584,0.23959 0.85416,0.35938 1.375,0.35938c0.34375,0 0.66146,-0.04687 0.95312,-0.14062c0.29167,-0.09375 0.54688,-0.23959 0.76563,-0.4375c0.10417,-0.09375 0.21354,-0.14062 0.32813,-0.14062c0.11459,-0.01041 0.22396,0.02084 0.32813,0.09375c0.10417,0.10416 0.16146,0.21875 0.17188,0.34375c0.02084,0.125 -0.02083,0.22916 -0.125,0.3125c-0.64583,0.59375 -1.45312,0.89063 -2.42187,0.89063zM225.85528,194.01498c-0.15625,0 -0.28125,-0.04687 -0.375,-0.14062c-0.09375,-0.10416 -0.14062,-0.22916 -0.14062,-0.375v-6.40625c0,-0.15625 0.04688,-0.28125 0.14063,-0.375c0.09375,-0.09375 0.21875,-0.14062 0.375,-0.14062c0.15625,0 0.27604,0.04688 0.35938,0.14063c0.09375,0.09375 0.14063,0.21875 0.14063,0.375v6.40625c0,0.14584 -0.04687,0.27084 -0.14062,0.375c-0.08333,0.09375 -0.20312,0.14063 -0.35937,0.14063zM231.58968,196.98373c-0.15625,0 -0.28125,-0.04687 -0.375,-0.14062c-0.09375,-0.10416 -0.14062,-0.22396 -0.14062,-0.35937v-3.46875c0,-0.55209 -0.10937,-1.00521 -0.32812,-1.35937c-0.20833,-0.35416 -0.49479,-0.61979 -0.85937,-0.79687c-0.35416,-0.17709 -0.75521,-0.26562 -1.20312,-0.26562c-0.4375,0 -0.83333,0.08334 -1.1875,0.25c-0.34375,0.16666 -0.61979,0.39584 -0.82812,0.6875c-0.20833,0.29166 -0.3125,0.625 -0.3125,1h-0.71875c0.01042,-0.5625 0.15625,-1.0625 0.4375,-1.5c0.29167,-0.4375 0.67188,-0.78125 1.14063,-1.03125c0.46875,-0.26041 0.99479,-0.39062 1.57813,-0.39062c0.625,0 1.1875,0.13541 1.6875,0.40625c0.5,0.26041 0.89063,0.64584 1.17188,1.15625c0.29167,0.5 0.4375,1.11459 0.4375,1.84375v3.46875c0,0.13541 -0.05208,0.25521 -0.15625,0.35938c-0.09375,0.09375 -0.20833,0.14063 -0.34375,0.14063zM225.85528,196.98373c-0.15625,0 -0.28125,-0.04687 -0.375,-0.14062c-0.09375,-0.09375 -0.14062,-0.21354 -0.14062,-0.35937v-6.26562c0,-0.16666 0.04688,-0.29687 0.14063,-0.39062c0.09375,-0.09375 0.21875,-0.14062 0.375,-0.14062c0.15625,0 0.27604,0.04688 0.35938,0.14063c0.09375,0.09375 0.14063,0.22396 0.14063,0.39063v6.26563c0,0.14584 -0.04687,0.26563 -0.14062,0.35938c-0.08333,0.09375 -0.20312,0.14063 -0.35937,0.14063zM239.92413,196.98373c-0.125,0 -0.23437,-0.03125 -0.32812,-0.09375c-0.08333,-0.0625 -0.14062,-0.14062 -0.17187,-0.23437l-2.07812,-6.25c-0.05208,-0.21875 -0.04687,-0.39062 0.01563,-0.51562c0.0625,-0.13541 0.1875,-0.20312 0.375,-0.20312c0.11459,0 0.21354,0.03125 0.29688,0.09375c0.09375,0.0625 0.16146,0.16146 0.20313,0.29688l1.85938,5.67188h-0.29687l1.71875,-5.65625c0.03125,-0.11459 0.08854,-0.20834 0.17188,-0.28125c0.09375,-0.08334 0.20313,-0.125 0.32813,-0.125c0.13542,0 0.24479,0.03646 0.32813,0.10938c0.08334,0.07291 0.14584,0.17188 0.1875,0.29688l1.64063,5.51563h-0.23437l1.8125,-5.53125c0.09375,-0.26041 0.26041,-0.39062 0.5,-0.39062c0.1875,0 0.31771,0.07813 0.39063,0.23438c0.07291,0.14584 0.07291,0.30729 0,0.48438l-2.07813,6.25c-0.03125,0.09375 -0.08854,0.17188 -0.17187,0.23438c-0.08333,0.0625 -0.18229,0.09375 -0.29687,0.09375c-0.125,0 -0.23437,-0.03125 -0.32812,-0.09375c-0.08333,-0.0625 -0.14062,-0.14062 -0.17187,-0.23437l-1.6875,-5.57812h0.17188l-1.6875,5.57813c-0.03125,0.10416 -0.09375,0.1875 -0.1875,0.25c-0.08333,0.05209 -0.17708,0.07813 -0.28125,0.07813zM251.16087,197.04623c-0.71875,0 -1.35417,-0.15625 -1.90625,-0.46875c-0.55208,-0.3125 -0.98958,-0.75 -1.3125,-1.3125c-0.3125,-0.5625 -0.46875,-1.20312 -0.46875,-1.92187c0,-0.72916 0.14583,-1.36979 0.4375,-1.92187c0.30208,-0.55209 0.71354,-0.98959 1.23438,-1.3125c0.53125,-0.32291 1.14063,-0.48437 1.82813,-0.48437c0.66666,0 1.25,0.15625 1.75,0.46875c0.51042,0.30209 0.90104,0.72396 1.17187,1.26563c0.28125,0.54166 0.42188,1.16146 0.42188,1.85938c0,0.13541 -0.04687,0.24479 -0.14062,0.32813c-0.08333,0.08334 -0.19791,0.125 -0.34375,0.125h-5.67187v-0.84375h5.78125l-0.57812,0.40625c0.01042,-0.51041 -0.08333,-0.96875 -0.28125,-1.375c-0.19792,-0.41666 -0.47917,-0.73959 -0.84375,-0.96875c-0.35417,-0.22916 -0.77604,-0.34375 -1.26562,-0.34375c-0.51042,0 -0.95833,0.11979 -1.34375,0.35938c-0.375,0.23959 -0.67187,0.57291 -0.89062,1c-0.20833,0.41666 -0.3125,0.89584 -0.3125,1.4375c0,0.54166 0.11979,1.02084 0.35938,1.4375c0.23958,0.41666 0.5625,0.74479 0.96875,0.98438c0.40625,0.23959 0.875,0.35938 1.40625,0.35938c0.32291,0 0.64583,-0.05209 0.96875,-0.15625c0.32292,-0.11459 0.58333,-0.25521 0.78125,-0.42187c0.09375,-0.08334 0.20313,-0.125 0.32813,-0.125c0.125,-0.01041 0.23438,0.02084 0.32813,0.09375c0.11459,0.10416 0.17187,0.21875 0.17187,0.34375c0.01042,0.125 -0.03646,0.23438 -0.14062,0.32813c-0.30208,0.25 -0.68229,0.45834 -1.14062,0.625c-0.44792,0.15625 -0.88021,0.23438 -1.29687,0.23438zM259.73497,197.04623c-0.6875,0 -1.3125,-0.15625 -1.875,-0.46875c-0.55209,-0.32291 -0.98959,-0.76041 -1.3125,-1.3125c-0.32292,-0.5625 -0.48959,-1.1875 -0.5,-1.875v-6.29687c0,-0.15625 0.04688,-0.28125 0.14063,-0.375c0.09375,-0.09375 0.21875,-0.14062 0.375,-0.14062c0.15625,0 0.27604,0.04688 0.35938,0.14063c0.09375,0.09375 0.14063,0.21875 0.14063,0.375v3.92188c0.30208,-0.41666 0.69271,-0.75 1.17187,-1c0.48958,-0.26041 1.03125,-0.39062 1.625,-0.39062c0.67709,0 1.28647,0.16146 1.82814,0.48438c0.54166,0.32291 0.96875,0.76563 1.28125,1.32813c0.32291,0.5625 0.48438,1.19271 0.48438,1.89063c0,0.71875 -0.16146,1.35938 -0.48437,1.92188c-0.32292,0.55209 -0.76562,0.98959 -1.32812,1.3125c-0.5625,0.32291 -1.19792,0.48438 -1.90626,0.48438zM259.73497,196.12435c0.52084,0 0.98439,-0.11979 1.39064,-0.35937c0.40625,-0.25 0.72396,-0.58334 0.95313,-1c0.23958,-0.42709 0.35938,-0.90625 0.35938,-1.4375c0,-0.52084 -0.11979,-0.98959 -0.35937,-1.40625c-0.22917,-0.42709 -0.54687,-0.76041 -0.95312,-1c-0.40625,-0.23959 -0.8698,-0.35937 -1.39064,-0.35937c-0.51042,0 -0.96875,0.11979 -1.375,0.35938c-0.40625,0.23959 -0.72396,0.57291 -0.95312,1c-0.22917,0.41666 -0.34375,0.88541 -0.34375,1.40625c0,0.53125 0.11458,1.01041 0.34375,1.4375c0.22916,0.41666 0.54688,0.75 0.95313,1c0.40625,0.23959 0.86458,0.35938 1.375,0.35938zM268.0173,197.04623c-0.53125,0 -1.05729,-0.08854 -1.57813,-0.26562c-0.51041,-0.17709 -0.92187,-0.44271 -1.23437,-0.79687c-0.10416,-0.10416 -0.14583,-0.22396 -0.125,-0.35937c0.02084,-0.13541 0.08854,-0.25 0.20313,-0.34375c0.125,-0.09375 0.25,-0.13021 0.375,-0.10937c0.13542,0.02084 0.25,0.07813 0.34375,0.17188c0.20834,0.25 0.48959,0.44271 0.84375,0.57813c0.35417,0.13541 0.74479,0.20313 1.17188,0.20313c0.65625,0 1.13021,-0.11459 1.42188,-0.34375c0.29166,-0.22916 0.44271,-0.50521 0.45313,-0.82812c0,-0.3125 -0.15104,-0.57291 -0.45312,-0.78125c-0.30209,-0.20834 -0.80209,-0.375 -1.5,-0.5c-0.89584,-0.13541 -1.55209,-0.38021 -1.96875,-0.73437c-0.41666,-0.35416 -0.625,-0.77604 -0.625,-1.26562c0,-0.45834 0.11979,-0.83854 0.35938,-1.14062c0.23959,-0.30209 0.55729,-0.52604 0.95313,-0.67187c0.40625,-0.15625 0.84896,-0.23437 1.32813,-0.23437c0.59375,0 1.10416,0.10416 1.53125,0.3125c0.4375,0.19791 0.78646,0.47396 1.04688,0.82813c0.09375,0.11459 0.13021,0.23438 0.10938,0.35938c-0.01041,0.125 -0.07812,0.22396 -0.20312,0.29688c-0.11459,0.0625 -0.23959,0.08334 -0.375,0.0625c-0.13541,-0.02084 -0.25,-0.08334 -0.34375,-0.1875c-0.22916,-0.26041 -0.48959,-0.44791 -0.78125,-0.5625c-0.29166,-0.125 -0.63021,-0.1875 -1.01562,-0.1875c-0.48959,0 -0.88021,0.09896 -1.17188,0.29688c-0.29166,0.19791 -0.4375,0.44791 -0.4375,0.75c0,0.20834 0.05209,0.39063 0.15625,0.54688c0.11459,0.14584 0.30729,0.27604 0.57813,0.39063c0.27084,0.11459 0.65104,0.21354 1.14063,0.29688c0.66666,0.10416 1.19271,0.26041 1.57813,0.46875c0.39584,0.20834 0.67188,0.45313 0.82813,0.73438c0.16666,0.28125 0.25,0.58334 0.25,0.90625c0,0.42709 -0.125,0.79688 -0.375,1.10938c-0.23959,0.3125 -0.57812,0.55729 -1.01562,0.73438c-0.42709,0.17709 -0.91666,0.26563 -1.46875,0.26563zM273.38863,196.98373c-0.16666,0 -0.29687,-0.04687 -0.39062,-0.14062c-0.09375,-0.09375 -0.14062,-0.21875 -0.14062,-0.375v-6.25c0,-0.16666 0.04688,-0.29687 0.14063,-0.39062c0.09375,-0.09375 0.22396,-0.14062 0.39063,-0.14062c0.14584,0 0.26563,0.04688 0.35938,0.14063c0.09375,0.09375 0.14063,0.22396 0.14063,0.39063v6.25c0,0.15625 -0.04687,0.28125 -0.14062,0.375c-0.09375,0.09375 -0.21354,0.14063 -0.35938,0.14063zM273.37298,188.31185c-0.19791,0 -0.36979,-0.07291 -0.51562,-0.21875c-0.13541,-0.14584 -0.20312,-0.31771 -0.20312,-0.51562c0,-0.22916 0.07291,-0.40625 0.21875,-0.53125c0.14584,-0.125 0.31771,-0.1875 0.51563,-0.1875c0.1875,0 0.35417,0.0625 0.5,0.1875c0.14583,0.125 0.21875,0.30209 0.21875,0.53125c0,0.19791 -0.07291,0.36979 -0.21875,0.51563c-0.13542,0.14584 -0.30729,0.21875 -0.51563,0.21875zM279.34981,196.98373c-0.46875,0 -0.89062,-0.10937 -1.26562,-0.32812c-0.36459,-0.22916 -0.65625,-0.53646 -0.875,-0.92187c-0.20834,-0.38541 -0.3125,-0.82812 -0.3125,-1.32812v-6.51562c0,-0.14584 0.04688,-0.26562 0.14063,-0.35937c0.09375,-0.10416 0.21875,-0.15625 0.375,-0.15625c0.14583,0 0.26563,0.05209 0.35938,0.15625c0.10416,0.09375 0.15625,0.21354 0.15625,0.35938v6.51563c0,0.45834 0.13021,0.83334 0.39063,1.125c0.27083,0.28125 0.61458,0.42188 1.03125,0.42188h0.35938c0.14583,0 0.26041,0.05209 0.34375,0.15625c0.09375,0.09375 0.14063,0.21875 0.14063,0.375c0,0.14584 -0.05209,0.26563 -0.15625,0.35938c-0.10417,0.09375 -0.23959,0.14063 -0.40625,0.14063zM276.03731,190.85873c-0.13542,0 -0.25,-0.04166 -0.34375,-0.125c-0.08334,-0.09375 -0.125,-0.20312 -0.125,-0.32812c0,-0.125 0.04166,-0.22916 0.125,-0.3125c0.09375,-0.09375 0.20833,-0.14062 0.34375,-0.14062h3.39063c0.13541,0 0.24479,0.04688 0.32813,0.14063c0.09375,0.08334 0.14063,0.1875 0.14063,0.3125c0,0.125 -0.04687,0.23438 -0.14062,0.32813c-0.08334,0.08334 -0.19271,0.125 -0.32812,0.125zM285.16083,197.04623c-0.71875,0 -1.35416,-0.15625 -1.90625,-0.46875c-0.55209,-0.3125 -0.98959,-0.75 -1.3125,-1.3125c-0.3125,-0.5625 -0.46875,-1.20312 -0.46875,-1.92187c0,-0.72916 0.14584,-1.36979 0.4375,-1.92187c0.30209,-0.55209 0.71354,-0.98959 1.23438,-1.3125c0.53125,-0.32291 1.14063,-0.48437 1.82813,-0.48437c0.66666,0 1.25,0.15625 1.75,0.46875c0.51041,0.30209 0.90104,0.72396 1.17188,1.26563c0.28125,0.54166 0.42188,1.16146 0.42188,1.85938c0,0.13541 -0.04687,0.24479 -0.14062,0.32813c-0.08334,0.08334 -0.19791,0.125 -0.34375,0.125h-5.67187v-0.84375h5.78125l-0.57812,0.40625c0.01041,-0.51041 -0.08334,-0.96875 -0.28125,-1.375c-0.19791,-0.41666 -0.47916,-0.73959 -0.84375,-0.96875c-0.35416,-0.22916 -0.77604,-0.34375 -1.26562,-0.34375c-0.51041,0 -0.95834,0.11979 -1.34375,0.35938c-0.375,0.23959 -0.67187,0.57291 -0.89062,1c-0.20834,0.41666 -0.3125,0.89584 -0.3125,1.4375c0,0.54166 0.11979,1.02084 0.35938,1.4375c0.23959,0.41666 0.5625,0.74479 0.96875,0.98438c0.40625,0.23959 0.875,0.35938 1.40625,0.35938c0.32291,0 0.64584,-0.05209 0.96875,-0.15625c0.32291,-0.11459 0.58334,-0.25521 0.78125,-0.42187c0.09375,-0.08334 0.20313,-0.125 0.32813,-0.125c0.125,-0.01041 0.23438,0.02084 0.32813,0.09375c0.11459,0.10416 0.17188,0.21875 0.17188,0.34375c0.01041,0.125 -0.03646,0.23438 -0.14062,0.32813c-0.30209,0.25 -0.68229,0.45834 -1.14062,0.625c-0.44791,0.15625 -0.88021,0.23438 -1.29687,0.23438zM290.28175,197.20248c-0.20834,0 -0.39062,-0.07291 -0.54687,-0.21875c-0.14584,-0.15625 -0.21875,-0.34375 -0.21875,-0.5625c0,-0.21875 0.07813,-0.40104 0.23438,-0.54687c0.15625,-0.15625 0.33333,-0.23437 0.53125,-0.23437c0.21875,0 0.40104,0.07813 0.54688,0.23438c0.15625,0.15625 0.23438,0.33854 0.23438,0.54688c0,0.20834 -0.07812,0.39063 -0.23437,0.54688c-0.14584,0.15625 -0.32812,0.23438 -0.54687,0.23438z" fill="#000000" fill-rule="nonzero" stroke="none" stroke-width="1" stroke-linecap="square"/><path d="M156.7659,213.12436c-0.59375,0 -1.13021,-0.13541 -1.60937,-0.40625c-0.46875,-0.28125 -0.84375,-0.65625 -1.125,-1.125c-0.27084,-0.47916 -0.40625,-1.01041 -0.40625,-1.59375c0,-0.15625 0.04688,-0.28125 0.14063,-0.375c0.10416,-0.09375 0.23438,-0.14062 0.39063,-0.14062c0.14584,0 0.26563,0.04688 0.35938,0.14063c0.10416,0.09375 0.15625,0.21875 0.15625,0.375c0,0.39584 0.09375,0.76042 0.28125,1.09375c0.1875,0.32292 0.4375,0.57813 0.75,0.76563c0.3125,0.17709 0.66666,0.26563 1.0625,0.26563c0.38541,0 0.73438,-0.09375 1.04688,-0.28125c0.32291,-0.1875 0.57291,-0.44271 0.75,-0.76562c0.1875,-0.32291 0.28125,-0.68229 0.28125,-1.07812v-6.90625c0,-0.14583 0.04688,-0.26562 0.14063,-0.35937c0.10416,-0.10416 0.22916,-0.15625 0.375,-0.15625c0.15625,0 0.28125,0.05209 0.375,0.15625c0.09375,0.09375 0.14063,0.21354 0.14063,0.35938v6.90625c0,0.58334 -0.13541,1.11459 -0.40625,1.59375c-0.27084,0.46875 -0.64584,0.84375 -1.125,1.125c-0.46875,0.27084 -0.99479,0.40625 -1.57812,0.40625zM165.58995,213.06186c-0.63541,0 -1.20312,-0.13021 -1.70312,-0.39062c-0.48959,-0.26041 -0.88021,-0.64062 -1.17187,-1.14062c-0.29166,-0.51041 -0.4375,-1.13021 -0.4375,-1.85937v-3.46875c0,-0.14583 0.04688,-0.26562 0.14063,-0.35937c0.10416,-0.10416 0.22916,-0.15625 0.375,-0.15625c0.14584,0 0.26563,0.05209 0.35938,0.15625c0.10416,0.09375 0.15625,0.21354 0.15625,0.35938v3.46875c0,0.54167 0.10416,0.99479 0.3125,1.35938c0.20834,0.35417 0.48959,0.61979 0.84375,0.79688c0.36459,0.17709 0.77604,0.26563 1.23438,0.26563c0.42709,0 0.81771,-0.08333 1.17188,-0.25c0.35416,-0.17708 0.63021,-0.41146 0.82813,-0.70312c0.20834,-0.29166 0.3125,-0.625 0.3125,-1h0.73438c-0.03125,0.5625 -0.1875,1.0625 -0.46875,1.5c-0.27084,0.4375 -0.64584,0.78646 -1.125,1.04688c-0.46875,0.25 -0.98959,0.375 -1.5625,0.375zM168.51184,212.98373c-0.14584,0 -0.26562,-0.04687 -0.35937,-0.14062c-0.09375,-0.09375 -0.14062,-0.21875 -0.14062,-0.375v-6.26562c0,-0.15625 0.04688,-0.28125 0.14063,-0.375c0.09375,-0.09375 0.21354,-0.14062 0.35938,-0.14062c0.15625,0 0.28125,0.04688 0.375,0.14063c0.10416,0.09375 0.15625,0.21875 0.15625,0.375v6.26563c0,0.15625 -0.05209,0.28125 -0.15625,0.375c-0.09375,0.09375 -0.21875,0.14063 -0.375,0.14063zM173.98805,213.04623c-0.53125,0 -1.05729,-0.08854 -1.57812,-0.26562c-0.51041,-0.17708 -0.92187,-0.44271 -1.23437,-0.79687c-0.10416,-0.10416 -0.14584,-0.22396 -0.125,-0.35937c0.02084,-0.13541 0.08854,-0.25 0.20313,-0.34375c0.125,-0.09375 0.25,-0.13021 0.375,-0.10937c0.13541,0.02084 0.25,0.07813 0.34375,0.17188c0.20834,0.25 0.48959,0.44271 0.84375,0.57813c0.35416,0.13542 0.74479,0.20313 1.17188,0.20313c0.65625,0 1.13021,-0.11458 1.42188,-0.34375c0.29166,-0.22916 0.44271,-0.50521 0.45313,-0.82812c0,-0.3125 -0.15104,-0.57291 -0.45312,-0.78125c-0.30209,-0.20833 -0.80209,-0.375 -1.5,-0.5c-0.89584,-0.13541 -1.55209,-0.38021 -1.96875,-0.73437c-0.41666,-0.35416 -0.625,-0.77604 -0.625,-1.26562c0,-0.45833 0.11979,-0.83854 0.35938,-1.14062c0.23959,-0.30208 0.55729,-0.52604 0.95313,-0.67187c0.40625,-0.15625 0.84896,-0.23437 1.32813,-0.23437c0.59375,0 1.10416,0.10417 1.53125,0.3125c0.4375,0.19792 0.78646,0.47396 1.04688,0.82813c0.09375,0.11459 0.13021,0.23438 0.10938,0.35938c-0.01041,0.125 -0.07812,0.22396 -0.20312,0.29688c-0.11459,0.0625 -0.23959,0.08334 -0.375,0.0625c-0.13541,-0.02083 -0.25,-0.08333 -0.34375,-0.1875c-0.22916,-0.26041 -0.48959,-0.44791 -0.78125,-0.5625c-0.29166,-0.125 -0.63021,-0.1875 -1.01562,-0.1875c-0.48959,0 -0.88021,0.09896 -1.17187,0.29688c-0.29166,0.19792 -0.4375,0.44792 -0.4375,0.75c0,0.20834 0.05209,0.39063 0.15625,0.54688c0.11459,0.14584 0.30729,0.27604 0.57813,0.39063c0.27084,0.11459 0.65104,0.21354 1.14063,0.29688c0.66666,0.10417 1.19271,0.26042 1.57813,0.46875c0.39584,0.20834 0.67188,0.45313 0.82813,0.73438c0.16666,0.28125 0.25,0.58334 0.25,0.90625c0,0.42709 -0.125,0.79688 -0.375,1.10938c-0.23959,0.3125 -0.57812,0.55729 -1.01562,0.73438c-0.42709,0.17709 -0.91666,0.26563 -1.46875,0.26563zM181.46878,212.98373c-0.46875,0 -0.89062,-0.10937 -1.26562,-0.32812c-0.36459,-0.22916 -0.65625,-0.53646 -0.875,-0.92187c-0.20834,-0.38541 -0.3125,-0.82812 -0.3125,-1.32812v-6.51562c0,-0.14583 0.04688,-0.26562 0.14063,-0.35937c0.09375,-0.10416 0.21875,-0.15625 0.375,-0.15625c0.14584,0 0.26563,0.05209 0.35938,0.15625c0.10416,0.09375 0.15625,0.21354 0.15625,0.35938v6.51563c0,0.45834 0.13021,0.83334 0.39063,1.125c0.27083,0.28125 0.61458,0.42188 1.03125,0.42188h0.35938c0.14583,0 0.26041,0.05209 0.34375,0.15625c0.09375,0.09375 0.14063,0.21875 0.14063,0.375c0,0.14584 -0.05209,0.26563 -0.15625,0.35938c-0.10417,0.09375 -0.23959,0.14063 -0.40625,0.14063zM178.15628,206.85873c-0.13541,0 -0.25,-0.04166 -0.34375,-0.125c-0.08334,-0.09375 -0.125,-0.20312 -0.125,-0.32812c0,-0.125 0.04166,-0.22916 0.125,-0.3125c0.09375,-0.09375 0.20834,-0.14062 0.34375,-0.14062h3.39063c0.13541,0 0.24479,0.04688 0.32813,0.14063c0.09375,0.08334 0.14063,0.1875 0.14063,0.3125c0,0.125 -0.04687,0.23438 -0.14062,0.32813c-0.08334,0.08334 -0.19271,0.125 -0.32812,0.125zM189.45053,212.98373c-0.35416,0 -0.67187,-0.09896 -0.95312,-0.29687c-0.27083,-0.19791 -0.48437,-0.46875 -0.64062,-0.8125c-0.15625,-0.34375 -0.23437,-0.74479 -0.23437,-1.20312v-7.59375c0,-0.14583 0.04688,-0.26562 0.14063,-0.35937c0.09375,-0.09375 0.21354,-0.14062 0.35938,-0.14062c0.15625,0 0.28125,0.04688 0.375,0.14063c0.09375,0.09375 0.14063,0.21354 0.14063,0.35938v7.59375c0,0.38542 0.07292,0.69792 0.21875,0.9375c0.15625,0.23959 0.35417,0.35938 0.59375,0.35938h0.34375c0.13542,0 0.23959,0.04688 0.3125,0.14063c0.08334,0.09375 0.125,0.21875 0.125,0.375c0,0.14584 -0.05729,0.26563 -0.17187,0.35938c-0.10416,0.09375 -0.24479,0.14063 -0.42187,0.14063zM192.38089,212.98373c-0.16666,0 -0.29687,-0.04687 -0.39062,-0.14062c-0.09375,-0.09375 -0.14062,-0.21875 -0.14062,-0.375v-6.25c0,-0.16666 0.04688,-0.29687 0.14063,-0.39062c0.09375,-0.09375 0.22396,-0.14062 0.39063,-0.14062c0.14584,0 0.26563,0.04688 0.35938,0.14063c0.09375,0.09375 0.14063,0.22396 0.14063,0.39063v6.25c0,0.15625 -0.04687,0.28125 -0.14062,0.375c-0.09375,0.09375 -0.21354,0.14063 -0.35937,0.14063zM192.36529,204.31186c-0.19791,0 -0.36979,-0.07291 -0.51562,-0.21875c-0.13541,-0.14583 -0.20312,-0.31771 -0.20312,-0.51562c0,-0.22916 0.07291,-0.40625 0.21875,-0.53125c0.14584,-0.125 0.31771,-0.1875 0.51563,-0.1875c0.1875,0 0.35416,0.0625 0.5,0.1875c0.14584,0.125 0.21875,0.30209 0.21875,0.53125c0,0.19792 -0.07291,0.36979 -0.21875,0.51563c-0.13541,0.14584 -0.30729,0.21875 -0.51562,0.21875zM196.3421,210.54623l-0.64062,-0.6875l4.5625,-4.10937c0.10416,-0.10416 0.21354,-0.15104 0.32813,-0.14062c0.125,0 0.23438,0.05729 0.32813,0.17188c0.09375,0.10417 0.13541,0.21875 0.125,0.34375c0,0.11459 -0.05209,0.21354 -0.15625,0.29688zM195.99835,212.98373c-0.14584,0 -0.26562,-0.04687 -0.35937,-0.14062c-0.09375,-0.09375 -0.14062,-0.21354 -0.14062,-0.35937v-9.40625c0,-0.14583 0.04688,-0.26562 0.14063,-0.35937c0.09375,-0.09375 0.21354,-0.14062 0.35938,-0.14062c0.15625,0 0.28125,0.04688 0.375,0.14063c0.09375,0.09375 0.14063,0.21354 0.14063,0.35938v9.40625c0,0.14584 -0.04687,0.26563 -0.14062,0.35938c-0.09375,0.09375 -0.21875,0.14063 -0.375,0.14063zM200.93585,212.92123c-0.11459,0.09375 -0.23437,0.13542 -0.35937,0.125c-0.125,-0.01041 -0.23437,-0.07812 -0.32812,-0.20312l-2.96875,-3.64062l0.71875,-0.64062l3,3.6875c0.09375,0.10417 0.13541,0.21875 0.125,0.34375c-0.01041,0.11459 -0.07291,0.22396 -0.1875,0.32813zM205.7522,213.04623c-0.71875,0 -1.35417,-0.15625 -1.90625,-0.46875c-0.55209,-0.3125 -0.98959,-0.75 -1.3125,-1.3125c-0.3125,-0.5625 -0.46875,-1.20312 -0.46875,-1.92187c0,-0.72916 0.14583,-1.36979 0.4375,-1.92187c0.30208,-0.55208 0.71354,-0.98958 1.23438,-1.3125c0.53125,-0.32291 1.14063,-0.48437 1.82813,-0.48437c0.66666,0 1.25,0.15625 1.75,0.46875c0.51041,0.30209 0.90104,0.72396 1.17188,1.26563c0.28125,0.54167 0.42188,1.16146 0.42188,1.85938c0,0.13542 -0.04687,0.24479 -0.14062,0.32813c-0.08334,0.08334 -0.19792,0.125 -0.34375,0.125h-5.67187v-0.84375h5.78125l-0.57812,0.40625c0.01041,-0.51041 -0.08334,-0.96875 -0.28125,-1.375c-0.19792,-0.41666 -0.47917,-0.73958 -0.84375,-0.96875c-0.35417,-0.22916 -0.77604,-0.34375 -1.26562,-0.34375c-0.51042,0 -0.95834,0.11979 -1.34375,0.35938c-0.375,0.23959 -0.67187,0.57292 -0.89062,1c-0.20834,0.41667 -0.3125,0.89584 -0.3125,1.4375c0,0.54167 0.11979,1.02084 0.35938,1.4375c0.23958,0.41667 0.5625,0.74479 0.96875,0.98438c0.40625,0.23959 0.875,0.35938 1.40625,0.35938c0.32291,0 0.64583,-0.05208 0.96875,-0.15625c0.32291,-0.11458 0.58333,-0.25521 0.78125,-0.42187c0.09375,-0.08333 0.20313,-0.125 0.32813,-0.125c0.125,-0.01041 0.23438,0.02084 0.32813,0.09375c0.11458,0.10417 0.17188,0.21875 0.17188,0.34375c0.01041,0.125 -0.03646,0.23438 -0.14062,0.32813c-0.30209,0.25 -0.68229,0.45834 -1.14062,0.625c-0.44792,0.15625 -0.88021,0.23438 -1.29687,0.23438zM217.87201,213.12436c-0.57291,0 -1.10416,-0.08333 -1.59375,-0.25c-0.47916,-0.16666 -0.89583,-0.40104 -1.25,-0.70312c-0.35416,-0.30208 -0.625,-0.65104 -0.8125,-1.04687c-0.07291,-0.14583 -0.07812,-0.27604 -0.01562,-0.39062c0.07292,-0.125 0.19271,-0.20833 0.35938,-0.25c0.125,-0.04166 0.24479,-0.03125 0.35938,0.03125c0.125,0.0625 0.21875,0.15625 0.28125,0.28125c0.125,0.26042 0.31771,0.49479 0.57813,0.70313c0.26042,0.19792 0.56771,0.35417 0.92188,0.46875c0.35417,0.10417 0.74479,0.15625 1.17188,0.15625c0.46875,0 0.88542,-0.07291 1.25,-0.21875c0.36459,-0.15625 0.65104,-0.38541 0.85938,-0.6875c0.20834,-0.30208 0.3125,-0.66666 0.3125,-1.09375c0,-0.54166 -0.20312,-1.00521 -0.60937,-1.39062c-0.39583,-0.39583 -1.01562,-0.64583 -1.85937,-0.75c-1.04166,-0.125 -1.85937,-0.44791 -2.45312,-0.96875c-0.58333,-0.52083 -0.875,-1.15625 -0.875,-1.90625c0,-0.54166 0.14584,-1.01041 0.4375,-1.40625c0.29167,-0.40625 0.6875,-0.71875 1.1875,-0.9375c0.51042,-0.21875 1.09375,-0.32812 1.75,-0.32812c0.48959,0 0.93229,0.07813 1.32813,0.23438c0.40625,0.15625 0.75521,0.36459 1.04688,0.625c0.30209,0.25 0.54688,0.52604 0.73438,0.82813c0.08334,0.13542 0.10938,0.27084 0.07813,0.40625c-0.03125,0.13542 -0.10937,0.23959 -0.23437,0.3125c-0.125,0.0625 -0.26041,0.07292 -0.40625,0.03125c-0.13541,-0.05208 -0.23958,-0.14062 -0.3125,-0.26562c-0.125,-0.19791 -0.29166,-0.38541 -0.5,-0.5625c-0.19791,-0.1875 -0.4375,-0.33333 -0.71875,-0.4375c-0.28125,-0.11458 -0.625,-0.17708 -1.03125,-0.1875c-0.69791,0 -1.26041,0.15104 -1.6875,0.45313c-0.42708,0.30209 -0.64062,0.73438 -0.64062,1.29688c0,0.30209 0.07813,0.58334 0.23438,0.84375c0.16667,0.25 0.43229,0.46875 0.79688,0.65625c0.36459,0.17709 0.85938,0.30729 1.48438,0.39063c1.11459,0.16667 1.9375,0.51042 2.46875,1.03125c0.54167,0.51042 0.8125,1.1875 0.8125,2.03125c0,0.47917 -0.08854,0.90625 -0.26562,1.28125c-0.16666,0.36459 -0.41146,0.67709 -0.73437,0.9375c-0.3125,0.25 -0.68229,0.44271 -1.10937,0.57813c-0.41666,0.13542 -0.86458,0.20313 -1.34375,0.20313zM226.61708,213.04623c-0.69792,0 -1.32292,-0.16146 -1.875,-0.48437c-0.54167,-0.32291 -0.97396,-0.76041 -1.29687,-1.3125c-0.3125,-0.5625 -0.46875,-1.19791 -0.46875,-1.90625c0,-0.70833 0.15104,-1.34375 0.45313,-1.90625c0.30208,-0.5625 0.71354,-1.00521 1.23438,-1.32812c0.53125,-0.32291 1.13541,-0.48437 1.8125,-0.48437c0.54166,0 1.04166,0.10938 1.5,0.32813c0.45833,0.20834 0.86458,0.52604 1.21875,0.95313c0.09375,0.10417 0.125,0.21875 0.09375,0.34375c-0.02084,0.11459 -0.09375,0.21875 -0.21875,0.3125c-0.10417,0.07292 -0.21875,0.09896 -0.34375,0.07813c-0.11459,-0.03125 -0.21354,-0.09896 -0.29687,-0.20312c-0.52084,-0.58333 -1.17187,-0.875 -1.95312,-0.875c-0.48959,0 -0.92709,0.11979 -1.3125,0.35938c-0.375,0.23959 -0.66667,0.56771 -0.875,0.98438c-0.20834,0.41667 -0.3125,0.89584 -0.3125,1.4375c0,0.53125 0.10938,1.00521 0.32813,1.42188c0.22916,0.41667 0.54166,0.75 0.9375,1c0.39583,0.23959 0.85416,0.35938 1.375,0.35938c0.34375,0 0.66146,-0.04687 0.95313,-0.14062c0.29166,-0.09375 0.54688,-0.23958 0.76563,-0.4375c0.10416,-0.09375 0.21354,-0.14062 0.32813,-0.14062c0.11458,-0.01041 0.22396,0.02084 0.32813,0.09375c0.10416,0.10417 0.16146,0.21875 0.17188,0.34375c0.02083,0.125 -0.02084,0.22917 -0.125,0.3125c-0.64584,0.59375 -1.45312,0.89063 -2.42187,0.89063zM231.71916,208.49936c0.03125,-0.55208 0.17708,-1.04687 0.4375,-1.48437c0.26041,-0.4375 0.59896,-0.78125 1.01563,-1.03125c0.42708,-0.25 0.89583,-0.375 1.40625,-0.375c0.41666,0 0.73438,0.05729 0.95313,0.17188c0.21875,0.11459 0.30208,0.28646 0.25,0.51563c-0.03125,0.13542 -0.08854,0.22396 -0.17187,0.26563c-0.08334,0.04167 -0.1875,0.05729 -0.3125,0.04688c-0.11459,-0.01041 -0.25,-0.01562 -0.40625,-0.01562c-0.5,-0.05208 -0.94271,-0.00521 -1.32812,0.14063c-0.38542,0.14584 -0.69271,0.36979 -0.92187,0.67188c-0.21875,0.30209 -0.32812,0.66667 -0.32812,1.09375zM231.79725,212.98373c-0.15625,0 -0.28125,-0.04166 -0.375,-0.125c-0.08334,-0.09375 -0.125,-0.21875 -0.125,-0.375v-6.28125c0,-0.16666 0.04166,-0.29166 0.125,-0.375c0.09375,-0.09375 0.21875,-0.14062 0.375,-0.14062c0.16666,0 0.29166,0.04688 0.375,0.14063c0.09375,0.08334 0.14063,0.20834 0.14063,0.375v6.28125c0,0.15625 -0.04687,0.28125 -0.14062,0.375c-0.08334,0.08334 -0.20834,0.125 -0.375,0.125zM240.07132,213.04623c-0.67709,0 -1.28646,-0.16146 -1.82812,-0.48437c-0.54167,-0.32291 -0.97396,-0.76041 -1.29687,-1.3125c-0.3125,-0.5625 -0.46875,-1.19791 -0.46875,-1.90625c0,-0.70833 0.16146,-1.34375 0.48438,-1.90625c0.32291,-0.5625 0.76563,-1.00521 1.32813,-1.32812c0.5625,-0.32291 1.19271,-0.48437 1.89063,-0.48437c0.70833,0 1.33854,0.16146 1.89063,0.48438c0.55208,0.32292 0.98958,0.76563 1.3125,1.32813c0.32291,0.5625 0.48958,1.19792 0.5,1.90625l-0.40625,0.32813c0,0.63542 -0.15104,1.20834 -0.45312,1.71875c-0.29167,0.51042 -0.69271,0.91667 -1.20312,1.21875c-0.51042,0.29167 -1.09375,0.4375 -1.75,0.4375zM240.18071,212.12436c0.52083,0 0.97916,-0.11979 1.375,-0.35937c0.40625,-0.25 0.72396,-0.58333 0.95313,-1c0.23958,-0.42708 0.35938,-0.90104 0.35938,-1.42187c0,-0.53125 -0.11979,-1.00521 -0.35937,-1.42187c-0.22917,-0.41666 -0.54687,-0.74479 -0.95312,-0.98437c-0.39584,-0.25 -0.85417,-0.375 -1.375,-0.375c-0.5,0 -0.95834,0.125 -1.375,0.375c-0.40625,0.23959 -0.72917,0.56771 -0.96875,0.98438c-0.23959,0.41667 -0.35937,0.89063 -0.35937,1.42188c0,0.52084 0.11979,0.99479 0.35938,1.42188c0.23958,0.41667 0.5625,0.75 0.96875,1c0.41666,0.23959 0.875,0.35938 1.375,0.35938zM243.36821,212.98373c-0.14584,0 -0.27084,-0.04687 -0.375,-0.14062c-0.09375,-0.09375 -0.14062,-0.21354 -0.14062,-0.35937v-2.28125l0.25,-1.0625l0.78125,0.20313v3.14063c0,0.14584 -0.04687,0.26563 -0.14062,0.35938c-0.09375,0.09375 -0.21875,0.14063 -0.375,0.14063zM248.73506,212.98373c-0.46875,0 -0.89062,-0.10937 -1.26562,-0.32812c-0.36458,-0.22916 -0.65625,-0.53646 -0.875,-0.92187c-0.20833,-0.38541 -0.3125,-0.82812 -0.3125,-1.32812v-6.51562c0,-0.14583 0.04688,-0.26562 0.14063,-0.35937c0.09375,-0.10416 0.21875,-0.15625 0.375,-0.15625c0.14584,0 0.26563,0.05209 0.35938,0.15625c0.10417,0.09375 0.15625,0.21354 0.15625,0.35938v6.51563c0,0.45834 0.13021,0.83334 0.39063,1.125c0.27084,0.28125 0.61459,0.42188 1.03125,0.42188h0.35938c0.14584,0 0.26042,0.05209 0.34375,0.15625c0.09375,0.09375 0.14063,0.21875 0.14063,0.375c0,0.14584 -0.05208,0.26563 -0.15625,0.35938c-0.10416,0.09375 -0.23958,0.14063 -0.40625,0.14063zM245.42256,206.85873c-0.13541,0 -0.25,-0.04166 -0.34375,-0.125c-0.08333,-0.09375 -0.125,-0.20312 -0.125,-0.32812c0,-0.125 0.04167,-0.22916 0.125,-0.3125c0.09375,-0.09375 0.20834,-0.14062 0.34375,-0.14062h3.39063c0.13542,0 0.24479,0.04688 0.32813,0.14063c0.09375,0.08334 0.14063,0.1875 0.14063,0.3125c0,0.125 -0.04687,0.23438 -0.14062,0.32813c-0.08333,0.08334 -0.19271,0.125 -0.32812,0.125zM254.49916,213.04623c-0.69792,0 -1.32292,-0.16146 -1.875,-0.48437c-0.54167,-0.32291 -0.97396,-0.76041 -1.29687,-1.3125c-0.3125,-0.5625 -0.46875,-1.19791 -0.46875,-1.90625c0,-0.70833 0.15104,-1.34375 0.45313,-1.90625c0.30208,-0.5625 0.71354,-1.00521 1.23438,-1.32812c0.53125,-0.32291 1.13541,-0.48437 1.8125,-0.48437c0.54166,0 1.04167,0.10938 1.5,0.32813c0.45834,0.20834 0.86459,0.52604 1.21875,0.95313c0.09375,0.10417 0.125,0.21875 0.09375,0.34375c-0.02083,0.11459 -0.09375,0.21875 -0.21875,0.3125c-0.10416,0.07292 -0.21875,0.09896 -0.34375,0.07813c-0.11458,-0.03125 -0.21354,-0.09896 -0.29687,-0.20312c-0.52083,-0.58333 -1.17187,-0.875 -1.95312,-0.875c-0.48959,0 -0.92709,0.11979 -1.3125,0.35938c-0.375,0.23959 -0.66667,0.56771 -0.875,0.98438c-0.20833,0.41667 -0.3125,0.89584 -0.3125,1.4375c0,0.53125 0.10938,1.00521 0.32813,1.42188c0.22917,0.41667 0.54167,0.75 0.9375,1c0.39583,0.23959 0.85416,0.35938 1.375,0.35938c0.34375,0 0.66146,-0.04687 0.95312,-0.14062c0.29167,-0.09375 0.54688,-0.23958 0.76563,-0.4375c0.10417,-0.09375 0.21354,-0.14062 0.32813,-0.14062c0.11459,-0.01041 0.22396,0.02084 0.32813,0.09375c0.10417,0.10417 0.16146,0.21875 0.17188,0.34375c0.02084,0.125 -0.02083,0.22917 -0.125,0.3125c-0.64583,0.59375 -1.45312,0.89063 -2.42187,0.89063zM259.695,210.01498c-0.15625,0 -0.28125,-0.04687 -0.375,-0.14062c-0.09375,-0.10416 -0.14062,-0.22916 -0.14062,-0.375v-6.40625c0,-0.15625 0.04688,-0.28125 0.14063,-0.375c0.09375,-0.09375 0.21875,-0.14062 0.375,-0.14062c0.15625,0 0.27605,0.04688 0.35939,0.14063c0.09375,0.09375 0.14063,0.21875 0.14063,0.375v6.40625c0,0.14584 -0.04687,0.27084 -0.14062,0.375c-0.08334,0.09375 -0.20314,0.14063 -0.35939,0.14063zM265.42938,212.98373c-0.15625,0 -0.28125,-0.04687 -0.375,-0.14062c-0.09375,-0.10416 -0.14062,-0.22396 -0.14062,-0.35937v-3.46875c0,-0.55208 -0.10937,-1.00521 -0.32812,-1.35937c-0.20833,-0.35416 -0.49479,-0.61979 -0.85937,-0.79687c-0.35416,-0.17708 -0.75521,-0.26562 -1.20312,-0.26562c-0.4375,0 -0.83333,0.08334 -1.1875,0.25c-0.34375,0.16667 -0.61979,0.39584 -0.82812,0.6875c-0.20833,0.29167 -0.3125,0.625 -0.3125,1h-0.71876c0.01042,-0.5625 0.15625,-1.0625 0.4375,-1.5c0.29168,-0.4375 0.67189,-0.78125 1.14064,-1.03125c0.46875,-0.26041 0.99479,-0.39062 1.57813,-0.39062c0.625,0 1.1875,0.13542 1.6875,0.40625c0.5,0.26042 0.89063,0.64584 1.17188,1.15625c0.29167,0.5 0.4375,1.11459 0.4375,1.84375v3.46875c0,0.13542 -0.05208,0.25521 -0.15625,0.35938c-0.09375,0.09375 -0.20833,0.14063 -0.34375,0.14063zM259.695,212.98373c-0.15625,0 -0.28125,-0.04687 -0.375,-0.14062c-0.09375,-0.09375 -0.14062,-0.21354 -0.14062,-0.35937v-6.26562c0,-0.16666 0.04688,-0.29687 0.14063,-0.39062c0.09375,-0.09375 0.21875,-0.14062 0.375,-0.14062c0.15625,0 0.27605,0.04688 0.35939,0.14063c0.09375,0.09375 0.14063,0.22396 0.14063,0.39063v6.26563c0,0.14584 -0.04687,0.26563 -0.14062,0.35938c-0.08334,0.09375 -0.20314,0.14063 -0.35939,0.14063zM268.85873,212.98373c-0.15625,0 -0.28646,-0.04687 -0.39062,-0.14062c-0.09375,-0.10416 -0.14062,-0.22916 -0.14062,-0.375v-9.375c0,-0.14583 0.04688,-0.26562 0.14063,-0.35937c0.10416,-0.10416 0.23438,-0.15625 0.39063,-0.15625h2.39062c0.76042,0 1.45834,0.125 2.09375,0.375c0.63542,0.25 1.18229,0.60938 1.64063,1.07813c0.46875,0.46875 0.82813,1.02084 1.07813,1.65625c0.26041,0.625 0.39063,1.31771 0.39063,2.07813c0,0.77084 -0.13021,1.47396 -0.39062,2.10938c-0.25,0.63542 -0.60937,1.1875 -1.07813,1.65625c-0.45833,0.45834 -1.00521,0.81771 -1.64062,1.07813c-0.63541,0.25 -1.33333,0.375 -2.09375,0.375zM269.37438,212.04623h1.875c0.82292,0 1.54688,-0.18229 2.17188,-0.54687c0.625,-0.375 1.11459,-0.88021 1.46875,-1.51562c0.35417,-0.64583 0.53125,-1.38541 0.53125,-2.21875c0,-0.82291 -0.17709,-1.55729 -0.53125,-2.20312c-0.35416,-0.64583 -0.84375,-1.14583 -1.46875,-1.5c-0.625,-0.36458 -1.34896,-0.54687 -2.17187,-0.54687h-1.875zM279.18384,212.98373c-0.16666,0 -0.30729,-0.04687 -0.42187,-0.14062c-0.11459,-0.09375 -0.17187,-0.21875 -0.17187,-0.375v-9.375c0,-0.14583 0.04688,-0.26562 0.14063,-0.35937c0.10416,-0.10416 0.23438,-0.15625 0.39063,-0.15625h3.23438c0.53125,0 1.01042,0.11459 1.4375,0.34375c0.4375,0.21875 0.78125,0.52604 1.03125,0.92188c0.25,0.38542 0.375,0.83854 0.375,1.35938c0,0.47917 -0.13021,0.90625 -0.39062,1.28125c-0.25,0.375 -0.58333,0.65625 -1,0.84375c0.59375,0.16667 1.07292,0.46875 1.4375,0.90625c0.36459,0.4375 0.54688,0.99479 0.54688,1.67188c0,0.60417 -0.14062,1.14063 -0.42187,1.60938c-0.27083,0.45834 -0.65104,0.81771 -1.14062,1.07813c-0.47916,0.26042 -1.03125,0.39063 -1.65625,0.39063zM279.63696,211.98373h2.9375c0.42709,0 0.80209,-0.08333 1.125,-0.25c0.33334,-0.16666 0.59375,-0.40625 0.78125,-0.71875c0.1875,-0.3125 0.28125,-0.68229 0.28125,-1.10937c0,-0.39583 -0.09375,-0.74479 -0.28125,-1.04687c-0.1875,-0.30208 -0.44791,-0.53125 -0.78125,-0.6875c-0.32291,-0.16666 -0.69791,-0.25 -1.125,-0.25h-2.9375zM279.63696,206.92123h2.71875c0.53125,0 0.96875,-0.15104 1.3125,-0.45312c0.35417,-0.30208 0.53125,-0.72396 0.53125,-1.26562c0,-0.53125 -0.17708,-0.93229 -0.53125,-1.20312c-0.34375,-0.28125 -0.78125,-0.42187 -1.3125,-0.42187h-2.71875zM287.9625,210.62436c-0.14584,0 -0.27084,-0.05208 -0.375,-0.15625c-0.09375,-0.10416 -0.14062,-0.22396 -0.14062,-0.35937v-7.01562c0,-0.14583 0.04688,-0.27083 0.14063,-0.375c0.10416,-0.10416 0.22916,-0.15625 0.375,-0.15625c0.15625,0 0.28125,0.05209 0.375,0.15625c0.09375,0.10417 0.14063,0.22917 0.14063,0.375v7.01563c0,0.13542 -0.05209,0.25521 -0.15625,0.35938c-0.10417,0.10417 -0.22396,0.15625 -0.35937,0.15625zM287.9625,212.98373c-0.20834,0 -0.39062,-0.07291 -0.54687,-0.21875c-0.14584,-0.15625 -0.21875,-0.33854 -0.21875,-0.54687c0,-0.22916 0.07291,-0.41666 0.21875,-0.5625c0.15625,-0.15625 0.33854,-0.23437 0.54688,-0.23437c0.21875,0 0.40104,0.07813 0.54688,0.23438c0.15625,0.15625 0.23438,0.34375 0.23438,0.5625c0,0.20834 -0.07812,0.39063 -0.23437,0.54688c-0.14584,0.14584 -0.32812,0.21875 -0.54687,0.21875z" fill="#000000" fill-rule="nonzero" stroke="none" stroke-width="1" stroke-linecap="square"/></g></g></svg>