<svg version="1.1" xmlns="http://www.w3.org/2000/svg" xmlns:xlink="http://www.w3.org/1999/xlink" width="150.1137" height="89.44894" viewBox="0,0,150.1137,89.44894"><g transform="translate(-164.69315,-135.27553)"><g data-paper-data="{&quot;isPaintingLayer&quot;:true}" fill-rule="nonzero" stroke-linejoin="miter" stroke-miterlimit="10" stroke-dasharray="" stroke-dashoffset="0" style="mix-blend-mode: normal"><g><path d="M165.19315,165.78642c0,-2.20914 1.79086,-4 4,-4h8c2,0 3,1 4,2l4,4c1,1 2,2 4,2h12c2,0 3,-1 4,-2l4,-4c1,-1 2,-2 4,-2h85c2.20914,0 4,1.79086 4,4v40c0,2.20914 -1.79086,4 -4,4h-85c-2,0 -3,1 -4,2l-4,4c-1,1 -2,2 -4,2h-12c-2,0 -3,-1 -4,-2l-4,-4c-1,-1 -2,-2 -4,-2h-8c-2.20914,0 -4,-1.79086 -4,-4z" fill="#ffab19" stroke="#cf8b17" stroke-width="1" stroke-linecap="butt"/><g fill="#000000" stroke="none" stroke-width="1" stroke-linecap="square"><path d="M177.22631,183.5189c-0.80208,0 -1.5625,-0.125 -2.28125,-0.375c-0.71875,-0.25 -1.34896,-0.59896 -1.89062,-1.04687c-0.53125,-0.44792 -0.92187,-0.96354 -1.17187,-1.54687c-0.125,-0.26042 -0.125,-0.5 0,-0.71875c0.13542,-0.22917 0.35938,-0.375 0.67188,-0.4375c0.22917,-0.05209 0.44792,-0.01562 0.65625,0.10938c0.21875,0.11458 0.38542,0.29166 0.5,0.53125c0.14584,0.3125 0.39063,0.59896 0.73438,0.85938c0.34375,0.26041 0.75521,0.47396 1.23438,0.64063c0.48959,0.15625 1.00521,0.23438 1.54688,0.23438c0.59375,0 1.14063,-0.09375 1.64063,-0.28125c0.51042,-0.1875 0.91667,-0.45834 1.21875,-0.8125c0.3125,-0.35417 0.46875,-0.79167 0.46875,-1.3125c0,-0.66667 -0.26041,-1.26042 -0.78125,-1.78125c-0.51041,-0.52084 -1.35416,-0.84375 -2.53125,-0.96875c-1.54166,-0.14584 -2.75521,-0.59896 -3.64062,-1.35937c-0.88541,-0.76042 -1.32812,-1.69792 -1.32812,-2.8125c0,-0.82292 0.22917,-1.52084 0.6875,-2.09375c0.45834,-0.57292 1.08334,-1.00521 1.875,-1.29687c0.79167,-0.30209 1.67188,-0.45312 2.64063,-0.45312c0.76042,0 1.42188,0.10416 1.98438,0.3125c0.57292,0.20833 1.06771,0.5 1.48438,0.875c0.42709,0.375 0.79688,0.81771 1.10938,1.32813c0.16667,0.27083 0.23438,0.53125 0.20313,0.78125c-0.02083,0.23958 -0.14062,0.42708 -0.35937,0.5625c-0.22916,0.14583 -0.48437,0.17708 -0.76562,0.09375c-0.27083,-0.08334 -0.47396,-0.24479 -0.60937,-0.48437c-0.19791,-0.36459 -0.44271,-0.67187 -0.73437,-0.92187c-0.28125,-0.25 -0.61458,-0.44271 -1,-0.57812c-0.38541,-0.14584 -0.83854,-0.21875 -1.35937,-0.21875c-0.92708,-0.01042 -1.70312,0.16146 -2.32812,0.51563c-0.61458,0.35416 -0.92187,0.89583 -0.92187,1.625c0,0.375 0.09375,0.73438 0.28125,1.07813c0.19792,0.34375 0.55209,0.64063 1.0625,0.89063c0.52084,0.25 1.26563,0.42188 2.23438,0.51563c1.47917,0.14583 2.63021,0.59896 3.45313,1.35938c0.83334,0.75 1.25,1.73958 1.25,2.96875c0,0.70833 -0.14583,1.32291 -0.4375,1.84375c-0.29166,0.52083 -0.68229,0.96354 -1.17187,1.32813c-0.48958,0.35416 -1.05208,0.61979 -1.6875,0.79688c-0.625,0.16666 -1.27083,0.25 -1.9375,0.25zM189.87432,183.40953c-1,0 -1.89062,-0.22396 -2.67187,-0.67187c-0.77083,-0.45834 -1.38021,-1.07812 -1.82812,-1.85937c-0.4375,-0.78125 -0.65625,-1.66146 -0.65625,-2.64062c0,-1.01042 0.21875,-1.90625 0.65625,-2.6875c0.4375,-0.78125 1.03125,-1.39062 1.78125,-1.82812c0.76042,-0.44792 1.63542,-0.67187 2.625,-0.67187c0.72917,0 1.39584,0.14063 2,0.42188c0.61459,0.28125 1.16667,0.70313 1.65625,1.26563c0.16667,0.19791 0.22396,0.40104 0.17188,0.60938c-0.04166,0.20833 -0.17708,0.39583 -0.40625,0.5625c-0.16666,0.125 -0.35937,0.16666 -0.57812,0.125c-0.20833,-0.05209 -0.40104,-0.16146 -0.57812,-0.32812c-0.60416,-0.64584 -1.35937,-0.96875 -2.26562,-0.96875c-0.63541,0 -1.19791,0.14583 -1.6875,0.4375c-0.47916,0.29166 -0.85937,0.69791 -1.14062,1.21875c-0.27083,0.52083 -0.40625,1.13541 -0.40625,1.84375c0,0.67708 0.14063,1.27604 0.42188,1.79688c0.28125,0.52083 0.66667,0.93229 1.15625,1.23438c0.5,0.30208 1.08334,0.45313 1.75,0.45313c0.42709,0 0.80729,-0.05209 1.14063,-0.15625c0.33334,-0.10417 0.63542,-0.26562 0.90625,-0.48437c0.19792,-0.16667 0.40104,-0.26042 0.60938,-0.28125c0.21875,-0.02084 0.40625,0.04166 0.5625,0.1875c0.20834,0.16666 0.32292,0.35938 0.34375,0.57813c0.03125,0.21875 -0.04166,0.41666 -0.21875,0.59375c-0.88541,0.83333 -2,1.25 -3.34375,1.25zM197.36797,176.9564c0,-0.75 0.18229,-1.41667 0.54688,-2c0.36459,-0.59375 0.85938,-1.0625 1.48438,-1.40625c0.625,-0.35417 1.30729,-0.53125 2.04688,-0.53125c0.75,0 1.30729,0.11979 1.67188,0.35938c0.375,0.23958 0.51563,0.53125 0.42188,0.875c-0.03125,0.16666 -0.10416,0.29688 -0.21875,0.39063c-0.10416,0.09375 -0.22396,0.15625 -0.35937,0.1875c-0.13541,0.02083 -0.28125,0.01041 -0.4375,-0.03125c-0.80208,-0.15625 -1.52083,-0.16667 -2.15625,-0.03125c-0.63541,0.13541 -1.13541,0.39063 -1.5,0.76563c-0.36458,0.375 -0.54687,0.84896 -0.54687,1.42188zM197.3836,183.3314c-0.29166,0 -0.52083,-0.07812 -0.6875,-0.23437c-0.16666,-0.15625 -0.25,-0.39062 -0.25,-0.70312v-8.32812c0,-0.30209 0.08334,-0.53125 0.25,-0.6875c0.16667,-0.16667 0.39584,-0.25 0.6875,-0.25c0.3125,0 0.54688,0.07813 0.70313,0.23438c0.15625,0.15625 0.23438,0.39063 0.23438,0.70313v8.32813c0,0.30208 -0.07812,0.53646 -0.23437,0.70313c-0.15625,0.15625 -0.39062,0.23438 -0.70312,0.23438zM209.03201,183.40953c-0.90625,0 -1.72396,-0.22396 -2.45312,-0.67187c-0.71875,-0.45834 -1.28646,-1.07812 -1.70312,-1.85937c-0.41666,-0.78125 -0.625,-1.66146 -0.625,-2.64062c0,-0.97917 0.22396,-1.85937 0.67188,-2.64062c0.45834,-0.79167 1.07291,-1.41146 1.84375,-1.85937c0.78125,-0.45834 1.66146,-0.6875 2.64063,-0.6875c0.96875,0 1.83854,0.22916 2.60938,0.6875c0.77084,0.44791 1.38021,1.06771 1.82813,1.85938c0.45834,0.78125 0.6875,1.66146 0.6875,2.64063h-0.73437c0,0.97916 -0.20834,1.85938 -0.625,2.64063c-0.41666,0.78125 -0.98437,1.40104 -1.70312,1.85938c-0.71875,0.44791 -1.53125,0.67188 -2.4375,0.67188zM209.40701,181.72203c0.625,0 1.1875,-0.15104 1.6875,-0.45312c0.5,-0.30209 0.89063,-0.71875 1.17188,-1.25c0.29166,-0.53125 0.4375,-1.125 0.4375,-1.78125c0,-0.66667 -0.14584,-1.26562 -0.4375,-1.79687c-0.28125,-0.53125 -0.67187,-0.94792 -1.17187,-1.25c-0.5,-0.30209 -1.0625,-0.45312 -1.6875,-0.45312c-0.625,0 -1.19271,0.15104 -1.70312,0.45313c-0.5,0.30208 -0.89584,0.71875 -1.1875,1.25c-0.29166,0.53125 -0.4375,1.13021 -0.4375,1.79688c0,0.65625 0.14584,1.25 0.4375,1.78125c0.29166,0.53125 0.6875,0.94791 1.1875,1.25c0.51041,0.30208 1.07813,0.45313 1.70313,0.45313zM213.57888,183.34703c-0.27084,0 -0.5,-0.08854 -0.6875,-0.26562c-0.17709,-0.17709 -0.26562,-0.40625 -0.26562,-0.6875v-2.84375l0.35938,-1.98437l1.54688,0.67188v4.15625c0,0.28125 -0.09375,0.51041 -0.28125,0.6875c-0.17709,0.17708 -0.40104,0.26563 -0.67187,0.26563zM221.07808,183.3314c-0.625,0 -1.1875,-0.15625 -1.6875,-0.46875c-0.48958,-0.32292 -0.88021,-0.75521 -1.17187,-1.29687c-0.28125,-0.55209 -0.42187,-1.17187 -0.42187,-1.85937v-8.89062c0,-0.27084 0.08334,-0.49479 0.25,-0.67187c0.17709,-0.17709 0.40625,-0.26562 0.6875,-0.26562c0.27084,0 0.48959,0.08854 0.65625,0.26563c0.17709,0.17708 0.26563,0.40104 0.26563,0.67188v8.89063c0,0.5 0.13542,0.92188 0.40625,1.26563c0.28125,0.33333 0.61979,0.5 1.01563,0.5h0.64063c0.21875,0 0.40625,0.08854 0.5625,0.26563c0.15625,0.16666 0.23438,0.38541 0.23438,0.65625c0,0.28125 -0.10416,0.51041 -0.3125,0.6875c-0.19791,0.16666 -0.45833,0.25 -0.78125,0.25zM216.93746,175.09703c-0.26041,0 -0.47396,-0.07292 -0.64062,-0.21875c-0.15625,-0.14584 -0.23437,-0.33334 -0.23437,-0.5625c0,-0.25 0.07813,-0.44792 0.23438,-0.59375c0.16666,-0.14584 0.38021,-0.21875 0.64062,-0.21875h4.3125c0.26042,0 0.46875,0.07291 0.625,0.21875c0.16667,0.14583 0.25,0.34375 0.25,0.59375c0,0.22916 -0.08333,0.41666 -0.25,0.5625c-0.15625,0.14583 -0.36458,0.21875 -0.625,0.21875zM229.48113,183.40953c-1,0 -1.89062,-0.22396 -2.67187,-0.67187c-0.77083,-0.45834 -1.38021,-1.07812 -1.82812,-1.85937c-0.4375,-0.78125 -0.65625,-1.66146 -0.65625,-2.64062c0,-1.01042 0.21875,-1.90625 0.65625,-2.6875c0.4375,-0.78125 1.03125,-1.39062 1.78125,-1.82812c0.76042,-0.44792 1.63542,-0.67187 2.625,-0.67187c0.72917,0 1.39584,0.14063 2,0.42188c0.61459,0.28125 1.16667,0.70313 1.65625,1.26563c0.16667,0.19791 0.22396,0.40104 0.17188,0.60938c-0.04166,0.20833 -0.17708,0.39583 -0.40625,0.5625c-0.16666,0.125 -0.35937,0.16666 -0.57812,0.125c-0.20833,-0.05209 -0.40104,-0.16146 -0.57812,-0.32812c-0.60416,-0.64584 -1.35937,-0.96875 -2.26562,-0.96875c-0.63541,0 -1.19791,0.14583 -1.6875,0.4375c-0.47916,0.29166 -0.85937,0.69791 -1.14062,1.21875c-0.27083,0.52083 -0.40625,1.13541 -0.40625,1.84375c0,0.67708 0.14063,1.27604 0.42188,1.79688c0.28125,0.52083 0.66667,0.93229 1.15625,1.23438c0.5,0.30208 1.08334,0.45313 1.75,0.45313c0.42709,0 0.80729,-0.05209 1.14063,-0.15625c0.33334,-0.10417 0.63542,-0.26562 0.90625,-0.48437c0.19792,-0.16667 0.40104,-0.26042 0.60938,-0.28125c0.21875,-0.02084 0.40625,0.04166 0.5625,0.1875c0.20834,0.16666 0.32292,0.35938 0.34375,0.57813c0.03125,0.21875 -0.04166,0.41666 -0.21875,0.59375c-0.88541,0.83333 -2,1.25 -3.34375,1.25zM237.00603,179.61265c-0.27083,0 -0.5,-0.08854 -0.6875,-0.26562c-0.17708,-0.17709 -0.26562,-0.40625 -0.26562,-0.6875v-8.95312c0,-0.28125 0.08854,-0.51042 0.26563,-0.6875c0.1875,-0.17709 0.41667,-0.26562 0.6875,-0.26562c0.29167,0 0.52084,0.08854 0.6875,0.26563c0.17709,0.17708 0.26563,0.40625 0.26563,0.6875v8.95313c0,0.28125 -0.08854,0.51041 -0.26562,0.6875c-0.16666,0.17708 -0.39583,0.26563 -0.6875,0.26563zM244.67791,183.34703c-0.27083,0 -0.5,-0.08854 -0.6875,-0.26562c-0.17708,-0.17709 -0.26562,-0.40625 -0.26562,-0.6875v-4.57812c0,-0.70834 -0.13021,-1.28646 -0.39062,-1.73437c-0.26041,-0.44792 -0.61458,-0.78125 -1.0625,-1c-0.4375,-0.21875 -0.94271,-0.32812 -1.51562,-0.32812c-0.52083,0 -0.99479,0.10416 -1.42187,0.3125c-0.41666,0.20833 -0.75,0.48958 -1,0.84375c-0.25,0.35416 -0.375,0.76563 -0.375,1.23438h-1.17187c0,-0.79167 0.1875,-1.49479 0.5625,-2.10937c0.38542,-0.61459 0.90625,-1.09896 1.5625,-1.45312c0.65625,-0.36459 1.39584,-0.54687 2.21875,-0.54687c0.86459,0 1.63542,0.18229 2.3125,0.54688c0.67709,0.36458 1.20834,0.90104 1.59375,1.60938c0.39584,0.70833 0.59375,1.58333 0.59375,2.625v4.57813c0,0.28125 -0.09375,0.51041 -0.28125,0.6875c-0.17708,0.17708 -0.40104,0.26563 -0.67187,0.26563zM237.00603,183.34703c-0.27083,0 -0.5,-0.08854 -0.6875,-0.26562c-0.17708,-0.17709 -0.26562,-0.40625 -0.26562,-0.6875v-8.3125c0,-0.29167 0.08854,-0.52084 0.26563,-0.6875c0.1875,-0.17709 0.41667,-0.26562 0.6875,-0.26562c0.29167,0 0.52084,0.08854 0.6875,0.26563c0.17709,0.16666 0.26563,0.39583 0.26563,0.6875v8.3125c0,0.28125 -0.08854,0.51041 -0.26562,0.6875c-0.16666,0.17708 -0.39583,0.26563 -0.6875,0.26563z"/><path d="M173.55443,205.7314c-0.27084,0 -0.5,-0.09375 -0.6875,-0.28125c-0.1875,-0.1875 -0.28125,-0.41667 -0.28125,-0.6875v-12.625c0,-0.29166 0.09375,-0.52604 0.28125,-0.70312c0.1875,-0.1875 0.41666,-0.28125 0.6875,-0.28125h8.4375c0.29166,0 0.52084,0.08854 0.6875,0.26563c0.17709,0.16666 0.26563,0.38541 0.26563,0.65625c0,0.26041 -0.08854,0.47396 -0.26562,0.64063c-0.16666,0.15625 -0.39584,0.23438 -0.6875,0.23438h-7.45312v4.53125h5.34375c0.29166,0 0.52084,0.08334 0.6875,0.25c0.17709,0.16666 0.26563,0.38541 0.26563,0.65625c0,0.26041 -0.08854,0.47396 -0.26562,0.64063c-0.16666,0.16666 -0.39584,0.25 -0.6875,0.25h-5.34375v4.65625h7.45313c0.29166,0 0.52084,0.08333 0.6875,0.25c0.17709,0.15625 0.26563,0.36458 0.26563,0.625c0,0.28125 -0.08854,0.50521 -0.26562,0.67188c-0.16666,0.16666 -0.39584,0.25 -0.6875,0.25zM192.06945,205.7314c-0.125,0 -0.24479,-0.01562 -0.35937,-0.04687c-0.10417,-0.04167 -0.20833,-0.125 -0.3125,-0.25l-3.26562,-3.92187l-0.67187,-0.67187l-3.25,-3.84375c-0.15625,-0.19791 -0.24479,-0.41146 -0.26562,-0.64062c-0.01042,-0.22916 0.05208,-0.42187 0.1875,-0.57812c0.14583,-0.16666 0.35417,-0.25 0.625,-0.25c0.30208,0 0.53646,0.10416 0.70313,0.3125l3.1875,3.8125l0.48438,0.4375l3.51563,4.20313c0.1875,0.22916 0.27604,0.45313 0.26563,0.67188c0,0.20833 -0.07812,0.39063 -0.23437,0.54688c-0.15625,0.14583 -0.35937,0.21875 -0.60937,0.21875zM184.94445,205.7314c-0.25,0 -0.44792,-0.07812 -0.59375,-0.23437c-0.13542,-0.15625 -0.20312,-0.34375 -0.20312,-0.5625c0,-0.22917 0.08333,-0.45312 0.25,-0.67187l3.17188,-3.98437l1.01563,1.42188l-2.96875,3.73438c-0.1875,0.19791 -0.41146,0.29688 -0.67187,0.29688zM189.55382,200.93453l-1.29687,-1.09375l3.01563,-4c0.09375,-0.125 0.19792,-0.20834 0.3125,-0.25c0.11458,-0.04166 0.23958,-0.0625 0.375,-0.0625c0.27083,0 0.47396,0.08334 0.60938,0.25c0.13542,0.16666 0.19792,0.36979 0.1875,0.60938c0,0.22916 -0.08854,0.45834 -0.26562,0.6875zM196.24224,210.09078c-0.27084,0 -0.5,-0.08854 -0.6875,-0.26562c-0.17709,-0.17708 -0.26562,-0.40104 -0.26562,-0.67187v-8.51562c0.02083,-0.97916 0.25521,-1.85937 0.70313,-2.64062c0.44791,-0.79166 1.05729,-1.41146 1.82813,-1.85937c0.77083,-0.45834 1.64063,-0.6875 2.60938,-0.6875c0.97916,0 1.85416,0.22916 2.625,0.6875c0.77083,0.44791 1.38021,1.06771 1.82813,1.85938c0.45833,0.78125 0.6875,1.66146 0.6875,2.64063c0,0.97916 -0.20834,1.85938 -0.625,2.64063c-0.41667,0.78125 -0.98437,1.40104 -1.70312,1.85938c-0.71875,0.44791 -1.53125,0.67188 -2.4375,0.67188c-0.73959,0 -1.41667,-0.15104 -2.03125,-0.45312c-0.61459,-0.3125 -1.14062,-0.72917 -1.57812,-1.25v5.04688c0,0.27084 -0.08854,0.49479 -0.26562,0.67188c-0.16667,0.17709 -0.39584,0.26563 -0.6875,0.26563zM200.42974,204.12203c0.63541,0 1.19791,-0.15104 1.6875,-0.45312c0.5,-0.30209 0.89583,-0.71875 1.1875,-1.25c0.29166,-0.53125 0.4375,-1.125 0.4375,-1.78125c0,-0.66666 -0.14584,-1.26562 -0.4375,-1.79687c-0.29167,-0.53125 -0.6875,-0.94791 -1.1875,-1.25c-0.48959,-0.30209 -1.05209,-0.45312 -1.6875,-0.45312c-0.625,0 -1.19271,0.15104 -1.70312,0.45313c-0.5,0.30209 -0.89584,0.71875 -1.1875,1.25c-0.28125,0.53125 -0.42187,1.13021 -0.42187,1.79688c0,0.65625 0.14063,1.25 0.42188,1.78125c0.29166,0.53125 0.6875,0.94791 1.1875,1.25c0.51041,0.30208 1.07813,0.45313 1.70313,0.45313zM210.84194,205.7314c-0.55209,0 -1.04167,-0.14584 -1.46875,-0.4375c-0.41667,-0.30209 -0.74479,-0.70834 -0.98437,-1.21875c-0.22917,-0.52084 -0.34375,-1.11979 -0.34375,-1.79687v-10.1875c0,-0.27084 0.08333,-0.49479 0.25,-0.67187c0.17708,-0.17709 0.40104,-0.26562 0.67188,-0.26562c0.28125,0 0.50521,0.08854 0.67188,0.26563c0.17708,0.17709 0.26563,0.40104 0.26563,0.67188v10.1875c0,0.45833 0.08333,0.83854 0.25,1.14063c0.17708,0.30208 0.40625,0.45313 0.6875,0.45313h0.46875c0.23958,0 0.4375,0.08854 0.59375,0.26563c0.15625,0.16666 0.23438,0.38541 0.23438,0.65625c0,0.28125 -0.11979,0.51041 -0.35937,0.6875c-0.22917,0.16666 -0.53125,0.25 -0.90625,0.25zM218.08195,205.80953c-1.01041,0 -1.90104,-0.21875 -2.67187,-0.65625c-0.77083,-0.44792 -1.38021,-1.05729 -1.82812,-1.82812c-0.4375,-0.78125 -0.65625,-1.67709 -0.65625,-2.6875c0,-1.02084 0.21875,-1.91666 0.65625,-2.6875c0.44792,-0.78125 1.05729,-1.39062 1.82813,-1.82812c0.77084,-0.44791 1.66146,-0.67187 2.67188,-0.67187c0.98959,0 1.86979,0.22396 2.64063,0.67188c0.77084,0.4375 1.375,1.04688 1.8125,1.82813c0.44792,0.77084 0.67188,1.66666 0.67188,2.6875c0,1.01041 -0.21875,1.90625 -0.65625,2.6875c-0.4375,0.77083 -1.04166,1.38021 -1.8125,1.82813c-0.77083,0.4375 -1.65625,0.65625 -2.65625,0.65625zM218.08195,204.12203c0.64584,0 1.21354,-0.14584 1.70313,-0.4375c0.5,-0.30209 0.89063,-0.71354 1.17188,-1.23437c0.28125,-0.52084 0.42188,-1.125 0.42188,-1.8125c0,-0.6875 -0.14062,-1.29166 -0.42187,-1.8125c-0.28125,-0.53125 -0.67187,-0.94271 -1.17187,-1.23437c-0.48958,-0.30209 -1.05729,-0.45312 -1.70312,-0.45312c-0.65625,0 -1.23437,0.15104 -1.73437,0.45313c-0.48958,0.29166 -0.88021,0.70313 -1.17187,1.23438c-0.28125,0.52084 -0.42187,1.125 -0.42187,1.8125c0,0.6875 0.14063,1.29166 0.42188,1.8125c0.29167,0.52083 0.68229,0.93229 1.17188,1.23438c0.5,0.29166 1.07813,0.4375 1.73438,0.4375zM226.95617,199.3564c0,-0.75 0.18229,-1.41666 0.54688,-2c0.36458,-0.59375 0.85938,-1.0625 1.48438,-1.40625c0.625,-0.35416 1.30729,-0.53125 2.04688,-0.53125c0.75,0 1.30729,0.11979 1.67188,0.35938c0.375,0.23959 0.51563,0.53125 0.42188,0.875c-0.03125,0.16666 -0.10417,0.29688 -0.21875,0.39063c-0.10417,0.09375 -0.22396,0.15625 -0.35937,0.1875c-0.13542,0.02084 -0.28125,0.01041 -0.4375,-0.03125c-0.80209,-0.15625 -1.52084,-0.16666 -2.15625,-0.03125c-0.63542,0.13541 -1.13542,0.39063 -1.5,0.76563c-0.36459,0.375 -0.54687,0.84896 -0.54687,1.42188zM226.97179,205.7314c-0.29167,0 -0.52084,-0.07812 -0.6875,-0.23437c-0.16667,-0.15625 -0.25,-0.39062 -0.25,-0.70312v-8.32812c0,-0.30209 0.08333,-0.53125 0.25,-0.6875c0.16666,-0.16666 0.39583,-0.25 0.6875,-0.25c0.3125,0 0.54688,0.07813 0.70313,0.23438c0.15625,0.15625 0.23438,0.39063 0.23438,0.70313v8.32813c0,0.30208 -0.07812,0.53646 -0.23437,0.70313c-0.15625,0.15625 -0.39062,0.23438 -0.70312,0.23438zM239.15145,205.80953c-1.03125,0 -1.94792,-0.21875 -2.75,-0.65625c-0.80208,-0.44792 -1.43229,-1.05729 -1.89062,-1.82812c-0.44792,-0.78125 -0.67187,-1.67709 -0.67187,-2.6875c0,-1.02084 0.21354,-1.91666 0.64063,-2.6875c0.42708,-0.78125 1.02083,-1.39062 1.78125,-1.82812c0.76042,-0.44791 1.63021,-0.67187 2.60938,-0.67187c0.97917,0 1.8125,0.21354 2.5,0.64063c0.69792,0.42709 1.22917,1.02084 1.59375,1.78125c0.375,0.75 0.5625,1.61459 0.5625,2.59375c0,0.23959 -0.08333,0.4375 -0.25,0.59375c-0.15625,0.15625 -0.35937,0.23438 -0.60937,0.23438h-7.51562v-1.5h7.45313l-0.76562,0.53125c-0.01042,-0.625 -0.13542,-1.18229 -0.375,-1.67187c-0.22917,-0.48959 -0.5625,-0.875 -1,-1.15625c-0.4375,-0.29166 -0.96875,-0.4375 -1.59375,-0.4375c-0.70833,0 -1.3125,0.15625 -1.8125,0.46875c-0.5,0.30209 -0.88542,0.72396 -1.15625,1.26563c-0.26042,0.54166 -0.39062,1.15625 -0.39062,1.84375c0,0.6875 0.15625,1.29688 0.46875,1.82813c0.3125,0.53125 0.73958,0.95313 1.28125,1.26563c0.55208,0.3125 1.18229,0.46875 1.89063,0.46875c0.38542,0 0.78125,-0.06771 1.1875,-0.20312c0.40625,-0.14584 0.73438,-0.3125 0.98438,-0.5c0.1875,-0.13542 0.39063,-0.20834 0.60938,-0.21875c0.21875,-0.01042 0.40625,0.05729 0.5625,0.20313c0.20833,0.17708 0.31771,0.38021 0.32813,0.60938c0.02083,0.21875 -0.07812,0.41146 -0.29687,0.57813c-0.41667,0.33333 -0.94271,0.60938 -1.57812,0.82813c-0.625,0.20833 -1.22396,0.3125 -1.79687,0.3125zM246.86198,199.3564c0,-0.75 0.18229,-1.41666 0.54688,-2c0.36459,-0.59375 0.85938,-1.0625 1.48438,-1.40625c0.625,-0.35416 1.30729,-0.53125 2.04688,-0.53125c0.75,0 1.30729,0.11979 1.67188,0.35938c0.375,0.23959 0.51563,0.53125 0.42188,0.875c-0.03125,0.16666 -0.10416,0.29688 -0.21875,0.39063c-0.10416,0.09375 -0.22396,0.15625 -0.35937,0.1875c-0.13541,0.02084 -0.28125,0.01041 -0.4375,-0.03125c-0.80208,-0.15625 -1.52083,-0.16666 -2.15625,-0.03125c-0.63541,0.13541 -1.13541,0.39063 -1.5,0.76563c-0.36458,0.375 -0.54687,0.84896 -0.54687,1.42188zM246.87761,205.7314c-0.29166,0 -0.52083,-0.07812 -0.6875,-0.23437c-0.16666,-0.15625 -0.25,-0.39062 -0.25,-0.70312v-8.32812c0,-0.30209 0.08334,-0.53125 0.25,-0.6875c0.16667,-0.16666 0.39584,-0.25 0.6875,-0.25c0.3125,0 0.54688,0.07813 0.70313,0.23438c0.15625,0.15625 0.23438,0.39063 0.23438,0.70313v8.32813c0,0.30208 -0.07812,0.53646 -0.23437,0.70313c-0.15625,0.15625 -0.39062,0.23438 -0.70312,0.23438z"/></g><g fill="none" stroke-width="2.5"><path d="M266.50904,190.67256c-5.89429,-1.97351 -9.07272,-8.35161 -7.09922,-14.2459c1.97351,-5.89429 8.35161,-9.07272 14.2459,-7.09922c5.89429,1.97351 9.07272,8.35161 7.09922,14.2459c-1.97351,5.89429 -8.35161,9.07272 -14.2459,7.09922z" stroke="#000000" stroke-linecap="butt"/><path d="M264.87421,224.72447l-39.5163,-49.93264l49.93264,-39.5163l39.5163,49.93264z" stroke="none" stroke-linecap="butt"/><path d="M288.68998,203.66426l-11.69122,-14.77297" stroke="#000000" stroke-linecap="round"/></g></g></g></g></svg>